# Blender v2.79 (sub 0) OBJ File: 'babillard.blend'
# www.blender.org
mtllib babillard.mtl
o Cube
v -1.000000 0.100000 0.010000
v -1.000000 0.900000 0.010000
v -1.000000 0.100000 -0.010000
v -1.000000 0.900000 -0.010000
v 1.000000 0.100000 0.010000
v 1.000000 0.900000 0.010000
v 1.000000 0.100000 -0.010000
v 1.000000 0.900000 -0.010000
v -0.820236 -0.002588 -0.008491
v -0.820236 0.926121 -0.008491
v -0.820236 -0.002588 -0.048964
v -0.820236 0.926121 -0.048964
v -0.779764 -0.002588 -0.008491
v -0.779764 0.926121 -0.008491
v -0.779764 -0.002588 -0.048964
v -0.779764 0.926121 -0.048964
v -0.820236 0.026796 -0.008491
v -0.820236 0.868516 -0.008491
v -0.820236 0.868516 -0.048964
v -0.820236 0.026796 -0.048964
v -0.779764 0.868516 -0.048964
v -0.779764 0.026796 -0.048964
v -0.779764 0.868516 -0.008491
v -0.779764 0.026796 -0.008491
v -0.820236 -0.002588 -0.528488
v -0.779764 -0.002588 -0.528488
v -0.820236 0.026796 -0.528488
v -0.779764 0.026796 -0.528488
v -0.779764 -0.002588 -0.475220
v -0.779764 0.026796 -0.475220
v -0.820236 -0.002588 -0.475220
v -0.820236 0.026796 -0.475220
v 0.810210 -0.002588 -0.008491
v 0.810210 0.926121 -0.008491
v 0.810210 -0.002588 -0.048964
v 0.810210 0.926121 -0.048964
v 0.850682 -0.002588 -0.008491
v 0.850682 0.926121 -0.008491
v 0.850682 -0.002588 -0.048964
v 0.850682 0.926121 -0.048964
v 0.810210 0.026796 -0.008491
v 0.810210 0.868516 -0.008491
v 0.810210 0.868516 -0.048964
v 0.810210 0.026796 -0.048964
v 0.850682 0.868516 -0.048964
v 0.850682 0.026796 -0.048964
v 0.850682 0.868516 -0.008491
v 0.850682 0.026796 -0.008491
v 0.810210 -0.002588 -0.528488
v 0.850682 -0.002588 -0.528488
v 0.810210 0.026796 -0.528488
v 0.850682 0.026796 -0.528488
v 0.850682 -0.002588 -0.475220
v 0.850682 0.026796 -0.475220
v 0.810210 -0.002588 -0.475220
v 0.810210 0.026796 -0.475220
v -0.020589 -0.002588 -0.008491
v -0.020589 0.926121 -0.008491
v -0.020589 -0.002588 -0.048964
v -0.020589 0.926121 -0.048964
v 0.019884 -0.002588 -0.008491
v 0.019884 0.926121 -0.008491
v 0.019884 -0.002588 -0.048964
v 0.019884 0.926121 -0.048964
v -0.020589 0.026796 -0.008491
v -0.020589 0.868516 -0.008491
v -0.020589 0.868516 -0.048964
v -0.020589 0.026796 -0.048964
v 0.019884 0.868516 -0.048964
v 0.019884 0.026796 -0.048964
v 0.019884 0.868516 -0.008491
v 0.019884 0.026796 -0.008491
v -0.020589 -0.002588 -0.528488
v 0.019884 -0.002588 -0.528488
v -0.020589 0.026796 -0.528488
v 0.019884 0.026796 -0.528488
v 0.019884 -0.002588 -0.475220
v 0.019884 0.026796 -0.475220
v -0.020589 -0.002588 -0.475220
v -0.020589 0.026796 -0.475220
v -0.016338 0.100830 0.270250
v -0.024578 0.115307 0.270292
v -0.016338 0.082309 0.243330
v -0.024578 0.087444 0.229794
v 0.016338 0.100830 0.270250
v 0.024578 0.115307 0.270292
v 0.016338 0.082309 0.243330
v 0.024578 0.087444 0.229794
v -0.000000 0.075652 -0.034749
v -0.000000 0.075652 0.245637
v 0.003203 0.074326 -0.034749
v 0.003203 0.074326 0.245637
v 0.004529 0.071123 -0.034749
v 0.004529 0.071123 0.245637
v 0.003203 0.067920 -0.034749
v 0.003203 0.067920 0.245637
v -0.000000 0.066593 -0.034749
v -0.000000 0.066593 0.245637
v -0.003203 0.067920 -0.034749
v -0.003203 0.067920 0.245637
v -0.004529 0.071123 -0.034749
v -0.004529 0.071123 0.245637
v -0.003203 0.074326 -0.034749
v -0.003203 0.074326 0.245637
v -0.000000 0.075989 0.247918
v 0.003203 0.074841 0.248581
v 0.004529 0.072067 0.250182
v 0.003203 0.069293 0.251784
v -0.000000 0.068144 0.252447
v -0.003203 0.069293 0.251784
v -0.004529 0.072067 0.250182
v -0.003203 0.074841 0.248581
v -0.000000 0.077422 0.249724
v 0.003203 0.076759 0.250873
v 0.004529 0.075157 0.253647
v 0.003203 0.073556 0.256420
v -0.000000 0.072893 0.257569
v -0.003203 0.073556 0.256420
v -0.004529 0.075157 0.253647
v -0.003203 0.076759 0.250873
v -0.000000 0.079566 0.250572
v 0.003203 0.079566 0.251899
v 0.004529 0.079566 0.255102
v 0.003203 0.079566 0.258304
v -0.000000 0.079566 0.259631
v -0.003203 0.079566 0.258304
v -0.004529 0.079566 0.255102
v -0.003203 0.079566 0.251899
v -0.000000 0.095943 0.250572
v 0.003203 0.095943 0.251899
v 0.004529 0.095943 0.255102
v 0.003203 0.095943 0.258304
v -0.000000 0.095943 0.259631
v -0.003203 0.095943 0.258304
v -0.004529 0.095943 0.255102
v -0.003203 0.095943 0.251899
v -0.814112 0.100830 0.270250
v -0.822353 0.115307 0.270292
v -0.814112 0.082309 0.243330
v -0.822353 0.087444 0.229794
v -0.781436 0.100830 0.270250
v -0.773196 0.115307 0.270292
v -0.781436 0.082309 0.243330
v -0.773196 0.087444 0.229794
v -0.797774 0.075652 -0.034749
v -0.797774 0.075652 0.245637
v -0.794572 0.074326 -0.034749
v -0.794572 0.074326 0.245637
v -0.793245 0.071123 -0.034749
v -0.793245 0.071123 0.245637
v -0.794572 0.067920 -0.034749
v -0.794572 0.067920 0.245637
v -0.797774 0.066593 -0.034749
v -0.797774 0.066593 0.245637
v -0.800977 0.067920 -0.034749
v -0.800977 0.067920 0.245637
v -0.802304 0.071123 -0.034749
v -0.802304 0.071123 0.245637
v -0.800977 0.074326 -0.034749
v -0.800977 0.074326 0.245637
v -0.797774 0.075989 0.247918
v -0.794572 0.074841 0.248581
v -0.793245 0.072067 0.250182
v -0.794572 0.069293 0.251784
v -0.797774 0.068144 0.252447
v -0.800977 0.069293 0.251784
v -0.802304 0.072067 0.250182
v -0.800977 0.074841 0.248581
v -0.797774 0.077422 0.249724
v -0.794572 0.076759 0.250873
v -0.793245 0.075157 0.253647
v -0.794572 0.073556 0.256420
v -0.797774 0.072893 0.257569
v -0.800977 0.073556 0.256420
v -0.802304 0.075157 0.253647
v -0.800977 0.076759 0.250873
v -0.797774 0.079566 0.250572
v -0.794572 0.079566 0.251899
v -0.793245 0.079566 0.255102
v -0.794572 0.079566 0.258304
v -0.797774 0.079566 0.259631
v -0.800977 0.079566 0.258304
v -0.802304 0.079566 0.255102
v -0.800977 0.079566 0.251899
v -0.797774 0.095943 0.250572
v -0.794572 0.095943 0.251899
v -0.793245 0.095943 0.255102
v -0.794572 0.095943 0.258304
v -0.797774 0.095943 0.259631
v -0.800977 0.095943 0.258304
v -0.802304 0.095943 0.255102
v -0.800977 0.095943 0.251899
v 0.814613 0.100830 0.270250
v 0.806373 0.115307 0.270292
v 0.814613 0.082309 0.243330
v 0.806373 0.087444 0.229794
v 0.847290 0.100830 0.270250
v 0.855530 0.115307 0.270292
v 0.847290 0.082309 0.243330
v 0.855530 0.087444 0.229794
v 0.830951 0.075652 -0.034749
v 0.830951 0.075652 0.245637
v 0.834154 0.074326 -0.034749
v 0.834154 0.074326 0.245637
v 0.835481 0.071123 -0.034749
v 0.835481 0.071123 0.245637
v 0.834154 0.067920 -0.034749
v 0.834154 0.067920 0.245637
v 0.830951 0.066593 -0.034749
v 0.830951 0.066593 0.245637
v 0.827749 0.067920 -0.034749
v 0.827749 0.067920 0.245637
v 0.826422 0.071123 -0.034749
v 0.826422 0.071123 0.245637
v 0.827749 0.074326 -0.034749
v 0.827749 0.074326 0.245637
v 0.830951 0.075989 0.247918
v 0.834154 0.074841 0.248581
v 0.835481 0.072067 0.250182
v 0.834154 0.069293 0.251784
v 0.830951 0.068144 0.252447
v 0.827749 0.069293 0.251784
v 0.826422 0.072067 0.250182
v 0.827749 0.074841 0.248581
v 0.830951 0.077422 0.249724
v 0.834154 0.076759 0.250873
v 0.835481 0.075157 0.253647
v 0.834154 0.073556 0.256420
v 0.830951 0.072893 0.257569
v 0.827749 0.073556 0.256420
v 0.826422 0.075157 0.253647
v 0.827749 0.076759 0.250873
v 0.830951 0.079566 0.250572
v 0.834154 0.079566 0.251899
v 0.835481 0.079566 0.255102
v 0.834154 0.079566 0.258304
v 0.830951 0.079566 0.259631
v 0.827749 0.079566 0.258304
v 0.826422 0.079566 0.255102
v 0.827749 0.079566 0.251899
v 0.830951 0.095943 0.250572
v 0.834154 0.095943 0.251899
v 0.835481 0.095943 0.255102
v 0.834154 0.095943 0.258304
v 0.830951 0.095943 0.259631
v 0.827749 0.095943 0.258304
v 0.826422 0.095943 0.255102
v 0.827749 0.095943 0.251899
vt 0.000000 0.000000
vt 0.000000 0.000000
vt 0.000000 0.000000
vt 0.000000 0.000000
vt 0.000000 0.000000
vt 0.000000 0.000000
vt 0.000000 0.000000
vt 0.000000 0.000000
vt 0.986584 0.017744
vt 0.986584 0.978186
vt 0.013416 0.978186
vt 0.013416 0.017744
vt 0.000000 0.000000
vt 0.000000 0.000000
vt 0.000000 0.000000
vt 0.000000 0.000000
vt 0.000000 0.000000
vt 0.000000 0.000000
vt 0.000000 0.000000
vt 0.000000 0.000000
vt 0.000000 0.000000
vt 0.000000 0.000000
vt 0.000000 0.000000
vt 0.000000 0.000000
vt 0.000000 0.000000
vt 0.000000 0.000000
vt 0.000000 0.000000
vt 0.000000 0.000000
vt 0.000000 0.000000
vt 0.000000 0.000000
vt 0.000000 0.000000
vt 0.000000 0.000000
vt 0.000000 0.000000
vt 0.000000 0.000000
vt 0.000000 0.000000
vt 0.000000 0.000000
vt 0.000000 0.000000
vt 0.000000 0.000000
vt 0.000000 0.000000
vt 0.000000 0.000000
vt 0.000000 0.000000
vt 0.000000 0.000000
vt 0.000000 0.000000
vt 0.000000 0.000000
vt 0.000000 0.000000
vt 0.000000 0.000000
vt 0.000000 0.000000
vt 0.000000 0.000000
vt 0.000000 0.000000
vt 0.000000 0.000000
vt 0.000000 0.000000
vt 0.000000 0.000000
vt 0.000000 0.000000
vt 0.000000 0.000000
vt 0.000000 0.000000
vt 0.000000 0.000000
vt 0.000000 0.000000
vt 0.000000 0.000000
vt 0.000000 0.000000
vt 0.000000 0.000000
vt 0.000000 0.000000
vt 0.000000 0.000000
vt 0.000000 0.000000
vt 0.000000 0.000000
vt 0.000000 0.000000
vt 0.000000 0.000000
vt 0.000000 0.000000
vt 0.000000 0.000000
vt 0.000000 0.000000
vt 0.000000 0.000000
vt 0.000000 0.000000
vt 0.000000 0.000000
vt 0.000000 0.000000
vt 0.000000 0.000000
vt 0.000000 0.000000
vt 0.000000 0.000000
vt 0.000000 0.000000
vt 0.000000 0.000000
vt 0.000000 0.000000
vt 0.000000 0.000000
vt 0.000000 0.000000
vt 0.000000 0.000000
vt 0.000000 0.000000
vt 0.000000 0.000000
vt 0.000000 0.000000
vt 0.000000 0.000000
vt 0.000000 0.000000
vt 0.000000 0.000000
vt 0.000000 0.000000
vt 0.000000 0.000000
vt 0.000000 0.000000
vt 0.000000 0.000000
vt 0.000000 0.000000
vt 0.000000 0.000000
vt 0.000000 0.000000
vt 0.000000 0.000000
vt 0.000000 0.000000
vt 0.000000 0.000000
vt 0.000000 0.000000
vt 0.000000 0.000000
vt 0.000000 0.000000
vt 0.000000 0.000000
vt 0.000000 0.000000
vt 0.000000 0.000000
vt 0.000000 0.000000
vt 0.000000 0.000000
vt 0.000000 0.000000
vt 0.000000 0.000000
vt 0.000000 0.000000
vt 0.000000 0.000000
vt 0.000000 0.000000
vt 0.000000 0.000000
vt 0.000000 0.000000
vt 0.000000 0.000000
vt 0.000000 0.000000
vt 0.000000 0.000000
vt 0.000000 0.000000
vt 0.000000 0.000000
vt 0.000000 0.000000
vt 0.000000 0.000000
vt 0.000000 0.000000
vt 0.000000 0.000000
vt 0.000000 0.000000
vt 0.000000 0.000000
vt 0.000000 0.000000
vt 0.000000 0.000000
vt 0.000000 0.000000
vt 0.000000 0.000000
vt 0.000000 0.000000
vt 0.000000 0.000000
vt 0.000000 0.000000
vt 0.000000 0.000000
vt 0.000000 0.000000
vt 0.000000 0.000000
vt 0.000000 0.000000
vt 0.000000 0.000000
vt 0.000000 0.000000
vt 0.000000 0.000000
vt 0.000000 0.000000
vt 0.000000 0.000000
vt 0.000000 0.000000
vt 0.000000 0.000000
vt 0.000000 0.000000
vt 0.000000 0.000000
vt 0.000000 0.000000
vt 0.000000 0.000000
vt 0.000000 0.000000
vt 0.000000 0.000000
vt 0.000000 0.000000
vt 0.000000 0.000000
vt 0.000000 0.000000
vt 0.000000 0.000000
vt 0.000000 0.000000
vt 0.000000 0.000000
vt 0.000000 0.000000
vt 0.000000 0.000000
vt 0.000000 0.000000
vt 0.000000 0.000000
vt 0.000000 0.000000
vt 0.000000 0.000000
vt 0.000000 0.000000
vt 0.000000 0.000000
vt 0.000000 0.000000
vt 0.000000 0.000000
vt 0.000000 0.000000
vt 0.000000 0.000000
vt 0.000000 0.000000
vt 0.000000 0.000000
vt 0.000000 0.000000
vt 0.000000 0.000000
vt 0.000000 0.000000
vt 0.000000 0.000000
vt 0.000000 0.000000
vt 0.000000 0.000000
vt 0.000000 0.000000
vt 0.000000 0.000000
vt 0.000000 0.000000
vt 0.000000 0.000000
vt 0.000000 0.000000
vt 0.000000 0.000000
vt 0.000000 0.000000
vt 0.000000 0.000000
vt 0.000000 0.000000
vt 0.000000 0.000000
vt 0.000000 0.000000
vt 0.000000 0.000000
vt 0.000000 0.000000
vt 0.000000 0.000000
vt 0.000000 0.000000
vt 0.000000 0.000000
vt 0.000000 0.000000
vt 0.000000 0.000000
vt 0.000000 0.000000
vt 0.000000 0.000000
vt 0.000000 0.000000
vt 0.000000 0.000000
vt 0.000000 0.000000
vt 0.000000 0.000000
vt 0.000000 0.000000
vt 0.000000 0.000000
vt 0.000000 0.000000
vt 0.000000 0.000000
vt 0.000000 0.000000
vt 0.000000 0.000000
vt 0.000000 0.000000
vt 0.000000 0.000000
vt 0.000000 0.000000
vt 0.000000 0.000000
vt 0.000000 0.000000
vt 0.000000 0.000000
vt 0.000000 0.000000
vt 0.000000 0.000000
vt 0.000000 0.000000
vt 0.000000 0.000000
vt 0.000000 0.000000
vt 0.000000 0.000000
vt 0.000000 0.000000
vt 0.000000 0.000000
vt 0.000000 0.000000
vt 0.000000 0.000000
vt 0.000000 0.000000
vt 0.000000 0.000000
vt 0.000000 0.000000
vt 0.000000 0.000000
vt 0.000000 0.000000
vt 0.000000 0.000000
vt 0.000000 0.000000
vt 0.000000 0.000000
vt 0.000000 0.000000
vt 0.000000 0.000000
vt 0.000000 0.000000
vt 0.000000 0.000000
vt 0.000000 0.000000
vt 0.000000 0.000000
vt 0.000000 0.000000
vt 0.000000 0.000000
vt 0.000000 0.000000
vt 0.000000 0.000000
vt 0.000000 0.000000
vt 0.000000 0.000000
vt 0.000000 0.000000
vt 0.000000 0.000000
vt 0.000000 0.000000
vt 0.000000 0.000000
vt 0.000000 0.000000
vt 0.000000 0.000000
vt 0.000000 0.000000
vt 0.000000 0.000000
vt 0.000000 0.000000
vt 0.000000 0.000000
vt 0.000000 0.000000
vt 0.000000 0.000000
vn -1.0000 0.0000 0.0000
vn 0.0000 0.0000 -1.0000
vn 1.0000 0.0000 0.0000
vn 0.0000 0.0000 1.0000
vn 0.0000 -1.0000 0.0000
vn 0.0000 1.0000 0.0000
vn 0.0000 -0.4518 0.8921
vn 0.0000 0.4705 -0.8824
vn -0.8222 -0.4689 0.3226
vn 0.0000 -0.9350 -0.3547
vn 0.8222 -0.4689 0.3226
vn 0.0000 -0.0029 1.0000
vn 0.0000 -0.8238 0.5668
vn 0.0000 0.8238 -0.5668
vn 0.3827 0.9239 0.0000
vn 0.9239 0.3827 0.0000
vn 0.9239 -0.3827 0.0000
vn 0.3827 -0.9239 0.0000
vn -0.3827 -0.9239 0.0000
vn -0.9239 -0.3827 0.0000
vn 0.3712 -0.9058 0.2044
vn -0.9239 0.3827 0.0000
vn -0.3827 0.9239 0.0000
vn 0.9189 -0.2921 0.2651
vn -0.9187 0.3876 -0.0755
vn 0.9187 0.3876 -0.0755
vn -0.3712 -0.9058 0.2044
vn -0.3699 0.9170 -0.1496
vn 0.3699 0.9170 -0.1496
vn 0.9189 -0.3856 0.0836
vn -0.9189 -0.3856 0.0836
vn -0.9187 0.1284 -0.3735
vn 0.3699 0.7193 -0.5880
vn -0.3699 0.7193 -0.5880
vn -0.9189 -0.2921 0.2651
vn 0.3712 -0.6822 0.6299
vn 0.9187 0.2979 -0.2592
vn -0.9187 0.2979 -0.2592
vn -0.3712 -0.6822 0.6299
vn 0.3827 0.0000 0.9239
vn -0.3712 -0.2758 0.8866
vn 0.9189 -0.1204 0.3757
vn 0.3699 0.3289 -0.8689
vn -0.3699 0.3289 -0.8689
vn -0.9189 -0.1204 0.3757
vn 0.3712 -0.2758 0.8866
vn 0.9187 0.1284 -0.3735
vn 0.9239 0.0000 -0.3827
vn -0.9239 0.0000 -0.3827
vn -0.3827 0.0000 0.9239
vn 0.9239 0.0000 0.3827
vn 0.3827 0.0000 -0.9239
vn -0.3827 0.0000 -0.9239
vn -0.9239 0.0000 0.3827
usemtl None
s off
f 1/1/1 2/2/1 4/3/1 3/4/1
f 3/4/2 4/3/2 8/5/2 7/6/2
f 7/6/3 8/5/3 6/7/3 5/8/3
f 5/9/4 6/10/4 2/11/4 1/12/4
f 3/4/5 7/6/5 5/8/5 1/1/5
f 8/5/6 4/3/6 2/2/6 6/7/6
f 18/13/1 10/14/1 12/15/1 19/16/1
f 19/16/7 32/17/7 30/18/7 21/19/7
f 21/19/3 16/20/3 14/21/3 23/22/3
f 23/22/4 14/21/4 10/14/4 18/13/4
f 11/23/5 15/24/5 13/25/5 9/26/5
f 16/20/6 12/15/6 10/14/6 14/21/6
f 13/25/4 24/27/4 17/28/4 9/26/4
f 24/27/4 23/22/4 18/13/4 17/28/4
f 15/24/3 22/29/3 24/27/3 13/25/3
f 22/29/3 21/19/3 23/22/3 24/27/3
f 30/18/3 29/30/3 26/31/3 28/32/3
f 20/33/2 19/16/2 21/19/2 22/29/2
f 9/26/1 17/28/1 20/33/1 11/23/1
f 17/28/1 18/13/1 19/16/1 20/33/1
f 25/34/2 27/35/2 28/32/2 26/31/2
f 29/30/5 31/36/5 25/34/5 26/31/5
f 12/15/1 27/35/1 32/17/1 19/16/1
f 31/36/1 32/17/1 27/35/1 25/34/1
f 11/23/1 20/33/1 32/17/1 31/36/1
f 20/33/6 22/29/6 30/18/6 32/17/6
f 15/24/5 11/23/5 31/36/5 29/30/5
f 22/29/3 15/24/3 29/30/3 30/18/3
f 21/19/3 30/18/3 28/32/3 16/20/3
f 16/20/8 28/32/8 27/35/8 12/15/8
f 42/37/1 34/38/1 36/39/1 43/40/1
f 43/40/7 56/41/7 54/42/7 45/43/7
f 45/43/3 40/44/3 38/45/3 47/46/3
f 47/46/4 38/45/4 34/38/4 42/37/4
f 35/47/5 39/48/5 37/49/5 33/50/5
f 40/44/6 36/39/6 34/38/6 38/45/6
f 37/49/4 48/51/4 41/52/4 33/50/4
f 48/51/4 47/46/4 42/37/4 41/52/4
f 39/48/3 46/53/3 48/51/3 37/49/3
f 46/53/3 45/43/3 47/46/3 48/51/3
f 54/42/3 53/54/3 50/55/3 52/56/3
f 44/57/2 43/40/2 45/43/2 46/53/2
f 33/50/1 41/52/1 44/57/1 35/47/1
f 41/52/1 42/37/1 43/40/1 44/57/1
f 49/58/2 51/59/2 52/56/2 50/55/2
f 53/54/5 55/60/5 49/58/5 50/55/5
f 36/39/1 51/59/1 56/41/1 43/40/1
f 55/60/1 56/41/1 51/59/1 49/58/1
f 35/47/1 44/57/1 56/41/1 55/60/1
f 44/57/6 46/53/6 54/42/6 56/41/6
f 39/48/5 35/47/5 55/60/5 53/54/5
f 46/53/3 39/48/3 53/54/3 54/42/3
f 45/43/3 54/42/3 52/56/3 40/44/3
f 40/44/8 52/56/8 51/59/8 36/39/8
f 66/61/1 58/62/1 60/63/1 67/64/1
f 67/64/7 80/65/7 78/66/7 69/67/7
f 69/67/3 64/68/3 62/69/3 71/70/3
f 71/70/4 62/69/4 58/62/4 66/61/4
f 59/71/5 63/72/5 61/73/5 57/74/5
f 64/68/6 60/63/6 58/62/6 62/69/6
f 61/73/4 72/75/4 65/76/4 57/74/4
f 72/75/4 71/70/4 66/61/4 65/76/4
f 63/72/3 70/77/3 72/75/3 61/73/3
f 70/77/3 69/67/3 71/70/3 72/75/3
f 78/66/3 77/78/3 74/79/3 76/80/3
f 68/81/2 67/64/2 69/67/2 70/77/2
f 57/74/1 65/76/1 68/81/1 59/71/1
f 65/76/1 66/61/1 67/64/1 68/81/1
f 73/82/2 75/83/2 76/80/2 74/79/2
f 77/78/5 79/84/5 73/82/5 74/79/5
f 60/63/1 75/83/1 80/65/1 67/64/1
f 79/84/1 80/65/1 75/83/1 73/82/1
f 59/71/1 68/81/1 80/65/1 79/84/1
f 68/81/6 70/77/6 78/66/6 80/65/6
f 63/72/5 59/71/5 79/84/5 77/78/5
f 70/77/3 63/72/3 77/78/3 78/66/3
f 69/67/3 78/66/3 76/80/3 64/68/3
f 64/68/8 76/80/8 75/83/8 60/63/8
f 81/85/9 82/86/9 84/87/9 83/88/9
f 83/88/10 84/87/10 88/89/10 87/90/10
f 87/90/11 88/89/11 86/91/11 85/92/11
f 85/92/12 86/91/12 82/86/12 81/85/12
f 83/88/13 87/90/13 85/92/13 81/85/13
f 88/89/14 84/87/14 82/86/14 86/91/14
f 89/93/15 90/94/15 92/95/15 91/96/15
f 91/96/16 92/95/16 94/97/16 93/98/16
f 93/98/17 94/97/17 96/99/17 95/100/17
f 95/100/18 96/99/18 98/101/18 97/102/18
f 97/102/19 98/101/19 100/103/19 99/104/19
f 99/104/20 100/103/20 102/105/20 101/106/20
f 98/101/21 96/99/21 108/107/21 109/108/21
f 101/106/22 102/105/22 104/109/22 103/110/22
f 103/110/23 104/109/23 90/94/23 89/93/23
f 89/93/2 91/96/2 93/98/2 95/100/2 97/102/2 99/104/2 101/106/2 103/110/2
f 108/107/24 107/111/24 115/112/24 116/113/24
f 104/109/25 102/105/25 111/114/25 112/115/25
f 94/97/26 92/95/26 106/116/26 107/111/26
f 100/103/27 98/101/27 109/108/27 110/117/27
f 90/94/28 104/109/28 112/115/28 105/118/28
f 92/95/29 90/94/29 105/118/29 106/116/29
f 96/99/30 94/97/30 107/111/30 108/107/30
f 102/105/31 100/103/31 110/117/31 111/114/31
f 120/119/32 119/120/32 127/121/32 128/122/32
f 106/116/33 105/118/33 113/123/33 114/124/33
f 105/118/34 112/115/34 120/119/34 113/123/34
f 111/114/35 110/117/35 118/125/35 119/120/35
f 109/108/36 108/107/36 116/113/36 117/126/36
f 107/111/37 106/116/37 114/124/37 115/112/37
f 112/115/38 111/114/38 119/120/38 120/119/38
f 110/117/39 109/108/39 117/126/39 118/125/39
f 125/127/40 124/128/40 132/129/40 133/130/40
f 118/125/41 117/126/41 125/127/41 126/131/41
f 116/113/42 115/112/42 123/132/42 124/128/42
f 114/124/43 113/123/43 121/133/43 122/134/43
f 113/123/44 120/119/44 128/122/44 121/133/44
f 119/120/45 118/125/45 126/131/45 127/121/45
f 117/126/46 116/113/46 124/128/46 125/127/46
f 115/112/47 114/124/47 122/134/47 123/132/47
f 130/135/6 129/136/6 136/137/6 135/138/6 134/139/6 133/130/6 132/129/6 131/140/6
f 123/132/48 122/134/48 130/135/48 131/140/48
f 128/122/49 127/121/49 135/138/49 136/137/49
f 126/131/50 125/127/50 133/130/50 134/139/50
f 124/128/51 123/132/51 131/140/51 132/129/51
f 122/134/52 121/133/52 129/136/52 130/135/52
f 121/133/53 128/122/53 136/137/53 129/136/53
f 127/121/54 126/131/54 134/139/54 135/138/54
f 137/141/9 138/142/9 140/143/9 139/144/9
f 139/144/10 140/143/10 144/145/10 143/146/10
f 143/146/11 144/145/11 142/147/11 141/148/11
f 141/148/12 142/147/12 138/142/12 137/141/12
f 139/144/13 143/146/13 141/148/13 137/141/13
f 144/145/14 140/143/14 138/142/14 142/147/14
f 145/149/15 146/150/15 148/151/15 147/152/15
f 147/152/16 148/151/16 150/153/16 149/154/16
f 149/154/17 150/153/17 152/155/17 151/156/17
f 151/156/18 152/155/18 154/157/18 153/158/18
f 153/158/19 154/157/19 156/159/19 155/160/19
f 155/160/20 156/159/20 158/161/20 157/162/20
f 154/157/21 152/155/21 164/163/21 165/164/21
f 157/162/22 158/161/22 160/165/22 159/166/22
f 159/166/23 160/165/23 146/150/23 145/149/23
f 145/149/2 147/152/2 149/154/2 151/156/2 153/158/2 155/160/2 157/162/2 159/166/2
f 164/163/24 163/167/24 171/168/24 172/169/24
f 160/165/25 158/161/25 167/170/25 168/171/25
f 150/153/26 148/151/26 162/172/26 163/167/26
f 156/159/27 154/157/27 165/164/27 166/173/27
f 146/150/28 160/165/28 168/171/28 161/174/28
f 148/151/29 146/150/29 161/174/29 162/172/29
f 152/155/30 150/153/30 163/167/30 164/163/30
f 158/161/31 156/159/31 166/173/31 167/170/31
f 176/175/32 175/176/32 183/177/32 184/178/32
f 162/172/33 161/174/33 169/179/33 170/180/33
f 161/174/34 168/171/34 176/175/34 169/179/34
f 167/170/35 166/173/35 174/181/35 175/176/35
f 165/164/36 164/163/36 172/169/36 173/182/36
f 163/167/37 162/172/37 170/180/37 171/168/37
f 168/171/38 167/170/38 175/176/38 176/175/38
f 166/173/39 165/164/39 173/182/39 174/181/39
f 181/183/40 180/184/40 188/185/40 189/186/40
f 174/181/41 173/182/41 181/183/41 182/187/41
f 172/169/42 171/168/42 179/188/42 180/184/42
f 170/180/43 169/179/43 177/189/43 178/190/43
f 169/179/44 176/175/44 184/178/44 177/189/44
f 175/176/45 174/181/45 182/187/45 183/177/45
f 173/182/46 172/169/46 180/184/46 181/183/46
f 171/168/47 170/180/47 178/190/47 179/188/47
f 186/191/6 185/192/6 192/193/6 191/194/6 190/195/6 189/186/6 188/185/6 187/196/6
f 179/188/48 178/190/48 186/191/48 187/196/48
f 184/178/49 183/177/49 191/194/49 192/193/49
f 182/187/50 181/183/50 189/186/50 190/195/50
f 180/184/51 179/188/51 187/196/51 188/185/51
f 178/190/52 177/189/52 185/192/52 186/191/52
f 177/189/53 184/178/53 192/193/53 185/192/53
f 183/177/54 182/187/54 190/195/54 191/194/54
f 193/197/9 194/198/9 196/199/9 195/200/9
f 195/200/10 196/199/10 200/201/10 199/202/10
f 199/202/11 200/201/11 198/203/11 197/204/11
f 197/204/12 198/203/12 194/198/12 193/197/12
f 195/200/13 199/202/13 197/204/13 193/197/13
f 200/201/14 196/199/14 194/198/14 198/203/14
f 201/205/15 202/206/15 204/207/15 203/208/15
f 203/208/16 204/207/16 206/209/16 205/210/16
f 205/210/17 206/209/17 208/211/17 207/212/17
f 207/212/18 208/211/18 210/213/18 209/214/18
f 209/214/19 210/213/19 212/215/19 211/216/19
f 211/216/20 212/215/20 214/217/20 213/218/20
f 210/213/21 208/211/21 220/219/21 221/220/21
f 213/218/22 214/217/22 216/221/22 215/222/22
f 215/222/23 216/221/23 202/206/23 201/205/23
f 201/205/2 203/208/2 205/210/2 207/212/2 209/214/2 211/216/2 213/218/2 215/222/2
f 220/219/24 219/223/24 227/224/24 228/225/24
f 216/221/25 214/217/25 223/226/25 224/227/25
f 206/209/26 204/207/26 218/228/26 219/223/26
f 212/215/27 210/213/27 221/220/27 222/229/27
f 202/206/28 216/221/28 224/227/28 217/230/28
f 204/207/29 202/206/29 217/230/29 218/228/29
f 208/211/30 206/209/30 219/223/30 220/219/30
f 214/217/31 212/215/31 222/229/31 223/226/31
f 232/231/32 231/232/32 239/233/32 240/234/32
f 218/228/33 217/230/33 225/235/33 226/236/33
f 217/230/34 224/227/34 232/231/34 225/235/34
f 223/226/35 222/229/35 230/237/35 231/232/35
f 221/220/36 220/219/36 228/225/36 229/238/36
f 219/223/37 218/228/37 226/236/37 227/224/37
f 224/227/38 223/226/38 231/232/38 232/231/38
f 222/229/39 221/220/39 229/238/39 230/237/39
f 237/239/40 236/240/40 244/241/40 245/242/40
f 230/237/41 229/238/41 237/239/41 238/243/41
f 228/225/42 227/224/42 235/244/42 236/240/42
f 226/236/43 225/235/43 233/245/43 234/246/43
f 225/235/44 232/231/44 240/234/44 233/245/44
f 231/232/45 230/237/45 238/243/45 239/233/45
f 229/238/46 228/225/46 236/240/46 237/239/46
f 227/224/47 226/236/47 234/246/47 235/244/47
f 242/247/6 241/248/6 248/249/6 247/250/6 246/251/6 245/242/6 244/241/6 243/252/6
f 235/244/48 234/246/48 242/247/48 243/252/48
f 240/234/49 239/233/49 247/250/49 248/249/49
f 238/243/50 237/239/50 245/242/50 246/251/50
f 236/240/51 235/244/51 243/252/51 244/241/51
f 234/246/52 233/245/52 241/248/52 242/247/52
f 233/245/53 240/234/53 248/249/53 241/248/53
f 239/233/54 238/243/54 246/251/54 247/250/54
