# Blender v2.79 (sub 0) OBJ File: 'vegetaux_arbres.blend'
# www.blender.org
mtllib vegetaux_arbre2.mtl
o Icosphere.001
v -0.296191 2.177090 1.201871
v -0.694174 1.665447 1.213964
v -0.078471 1.609836 1.317697
v 0.273578 2.099872 0.815832
v -0.134766 2.472975 0.371273
v -0.723365 2.175563 0.645865
v -0.367293 1.528958 0.666172
v 0.232672 1.753391 0.425712
v 0.233495 1.768326 -0.052262
v -0.379562 1.782058 -0.148049
v -0.747029 1.534378 0.307521
v -0.099681 1.200174 -0.251624
v -0.176877 1.890036 1.373948
v -0.539328 1.940735 1.311317
v -0.412918 1.609105 1.374852
v -0.786834 1.922614 0.995394
v -0.557705 2.251861 0.973740
v 0.030748 2.163279 1.081049
v 0.161630 1.831466 1.157998
v -0.211723 2.424625 0.812381
v 0.123562 2.362999 0.586756
v -0.463004 2.422772 0.485122
v -0.810055 1.614094 0.831345
v -0.823527 1.854634 0.508494
v -0.220082 1.468745 1.117748
v -0.580755 1.461245 1.060469
v 0.339274 1.913435 0.680744
v 0.132471 1.657201 0.976109
v 0.095096 2.207460 0.124544
v 0.325579 2.095995 0.357224
v -0.616302 2.089145 0.214394
v -0.265224 2.220842 0.068327
v -0.611377 1.452755 0.459231
v -0.039687 1.655589 0.516195
v 0.321482 1.665863 0.118046
v -0.041121 1.733340 -0.227442
v -0.618156 1.589191 -0.018057
v -0.257152 1.218229 0.099394
v -0.481178 1.210775 -0.113887
v 0.101401 1.255598 -0.024216
v 0.097146 1.331077 -0.319389
v -0.265022 1.372570 -0.381170
vn -0.0821 0.4871 0.8695
vn -0.7732 0.2253 0.5928
vn 0.3039 0.5796 0.7561
vn 0.2395 0.7951 0.5572
vn -0.1912 0.8467 0.4966
vn -0.9500 -0.0878 0.2995
vn 0.0923 -0.8432 0.5296
vn 0.9311 0.0685 0.3583
vn 0.5710 0.7668 -0.2932
vn -0.7479 0.5902 -0.3038
vn -0.7189 -0.6262 0.3018
vn 0.5252 -0.8247 0.2100
vn 0.9595 0.2609 0.1066
vn 0.1313 0.7334 -0.6670
vn -0.8688 0.3975 -0.2952
vn -0.1153 -0.8803 0.4602
vn 0.4394 -0.6633 0.6057
vn 0.8890 0.0025 -0.4578
vn -0.1394 0.4602 -0.8768
vn -0.8927 -0.2241 -0.3911
vn -0.2519 -0.7241 -0.6421
vn -0.7427 -0.1012 -0.6619
vn -0.6131 0.2543 -0.7480
vn 0.0790 -0.5494 -0.8318
vn 0.1926 0.2811 -0.9402
vn 0.4724 0.3475 -0.8100
vn 0.4854 -0.8453 -0.2232
vn 0.8917 -0.4353 -0.1242
vn 0.7585 -0.5356 0.3713
vn 0.1419 -0.9833 0.1142
vn 0.2890 -0.7318 0.6171
vn 0.5001 -0.7147 0.4890
vn -0.0110 -0.9989 0.0464
vn -0.2748 -0.9066 0.3203
vn -0.6409 -0.7484 0.1704
vn -0.9302 0.0080 -0.3669
vn -0.8702 0.2103 -0.4455
vn -0.6415 0.3254 -0.6947
vn -0.1378 0.4667 -0.8736
vn 0.1479 0.5618 -0.8140
vn 0.4384 0.4511 -0.7773
vn 0.9142 0.1903 -0.3578
vn 0.9993 0.0107 -0.0363
vn 0.4080 -0.8404 0.3568
vn 0.3033 -0.9465 -0.1102
vn 0.4173 -0.8958 -0.1531
vn 0.2663 -0.9402 -0.2122
vn 0.2994 -0.9541 -0.0018
vn -0.5823 -0.8119 0.0411
vn -0.5616 -0.8254 0.0580
vn -0.4848 0.4852 -0.7277
vn -0.4847 0.6746 -0.5568
vn -0.3045 0.7925 -0.5284
vn 0.7345 0.4396 -0.5170
vn 0.6330 0.7211 -0.2816
vn 0.8298 0.5509 0.0894
vn 0.8001 -0.5984 0.0411
vn 0.8747 -0.4123 0.2548
vn 0.7511 -0.5327 0.3900
vn 0.0437 -0.9883 -0.1460
vn -0.0526 -0.8926 0.4479
vn -0.4611 -0.6824 0.5671
vn -0.9800 -0.1770 -0.0910
vn -0.9968 0.0379 0.0698
vn -0.9579 0.2851 0.0324
vn -0.6335 0.7603 0.1432
vn -0.3355 0.9076 0.2524
vn -0.1210 0.9888 0.0873
vn 0.2769 0.9488 0.1523
vn 0.4225 0.8100 0.4066
vn 0.6089 0.6891 0.3928
vn 0.7187 0.4132 0.5593
vn 0.5426 0.3869 0.7456
vn 0.5403 0.0209 0.8412
vn -0.7832 0.5625 0.2648
vn -0.6895 0.5135 0.5108
vn -0.3666 0.6741 0.6412
vn 0.1671 -0.1373 0.9763
vn -0.1511 0.1301 0.9799
vn -0.5001 -0.0248 0.8656
usemtl vertArbres
s off
f 1//1 14//1 13//1
f 2//2 14//2 16//2
f 1//3 13//3 18//3
f 1//4 18//4 20//4
f 1//5 20//5 17//5
f 2//6 16//6 23//6
f 3//7 15//7 25//7
f 4//8 19//8 27//8
f 5//9 21//9 29//9
f 6//10 22//10 31//10
f 2//11 23//11 26//11
f 3//12 25//12 28//12
f 4//13 27//13 30//13
f 5//14 29//14 32//14
f 6//15 31//15 24//15
f 7//16 33//16 38//16
f 8//17 34//17 40//17
f 9//18 35//18 41//18
f 10//19 36//19 42//19
f 11//20 37//20 39//20
f 39//21 42//21 12//21
f 39//22 37//22 42//22
f 37//23 10//23 42//23
f 42//24 41//24 12//24
f 42//25 36//25 41//25
f 36//26 9//26 41//26
f 41//27 40//27 12//27
f 41//28 35//28 40//28
f 35//29 8//29 40//29
f 40//30 38//30 12//30
f 40//31 34//31 38//31
f 34//32 7//32 38//32
f 38//33 39//33 12//33
f 38//34 33//34 39//34
f 33//35 11//35 39//35
f 24//36 37//36 11//36
f 24//37 31//37 37//37
f 31//38 10//38 37//38
f 32//39 36//39 10//39
f 32//40 29//40 36//40
f 29//41 9//41 36//41
f 30//42 35//42 9//42
f 30//43 27//43 35//43
f 27//44 8//44 35//44
f 28//45 34//45 8//45
f 28//46 25//46 34//46
f 25//47 7//47 34//47
f 26//48 33//48 7//48
f 26//49 23//49 33//49
f 23//50 11//50 33//50
f 31//51 32//51 10//51
f 31//52 22//52 32//52
f 22//53 5//53 32//53
f 29//54 30//54 9//54
f 29//55 21//55 30//55
f 21//56 4//56 30//56
f 27//57 28//57 8//57
f 27//58 19//58 28//58
f 19//59 3//59 28//59
f 25//60 26//60 7//60
f 25//61 15//61 26//61
f 15//62 2//62 26//62
f 23//63 24//63 11//63
f 23//64 16//64 24//64
f 16//65 6//65 24//65
f 17//66 22//66 6//66
f 17//67 20//67 22//67
f 20//68 5//68 22//68
f 20//69 21//69 5//69
f 20//70 18//70 21//70
f 18//71 4//71 21//71
f 18//72 19//72 4//72
f 18//73 13//73 19//73
f 13//74 3//74 19//74
f 16//75 17//75 6//75
f 16//76 14//76 17//76
f 14//77 1//77 17//77
f 13//78 15//78 3//78
f 13//79 14//79 15//79
f 14//80 2//80 15//80
o Plane.001
v 0.000000 -0.036881 -0.252313
v 0.126607 1.190724 0.480659
v 0.008945 1.275049 0.572792
v 0.000000 0.360082 -0.246099
v -0.250000 -0.033487 -0.002336
v 0.000000 -0.030094 0.247641
v -0.253487 1.898573 1.040177
v -0.127184 0.976036 0.751383
v 0.012099 0.859511 0.678932
v 0.250000 -0.033487 -0.002336
v -0.221441 1.027252 0.609114
v 0.051097 1.099705 0.349753
v -0.225813 1.521238 0.018668
v -0.198781 0.917214 0.447048
v 0.130296 1.035229 0.621390
v 0.000000 -0.205597 0.000000
v 0.250000 0.310732 -0.007009
v 0.000000 0.261381 0.232081
v -0.250000 0.310732 -0.007009
v 0.018354 0.957897 0.233609
v 0.196302 0.812741 0.369941
v 0.000000 0.664626 0.498769
v -0.177949 0.809783 0.362438
v -0.288180 1.209018 0.138087
v -0.073408 1.290787 0.171196
v -0.154715 1.444827 0.326813
v -0.369487 1.363058 0.293704
v -0.292291 1.344245 -0.010687
v -0.073657 1.407722 0.042546
v -0.156426 1.568688 0.190544
v -0.375059 1.505210 0.137311
v -0.119376 1.171146 0.895430
v -0.212639 1.258998 0.755342
v -0.048634 1.348913 0.709431
v 0.044629 1.261060 0.849518
v -0.163129 1.333159 1.006262
v -0.238014 1.397546 0.869070
v -0.090969 1.469762 0.824024
v -0.016084 1.405374 0.961216
v -0.215324 1.536608 1.084224
v -0.276325 1.563948 0.940662
v -0.134171 1.615771 0.891244
v -0.073170 1.588432 1.034806
v -0.271082 1.764093 1.122966
v -0.327670 1.774457 0.974296
v -0.183399 1.818131 0.922427
v -0.126811 1.807768 1.071096
v 0.000000 0.742286 -0.042064
v 0.228831 0.612896 0.140180
v 0.000000 0.483507 0.322423
v -0.228831 0.612896 0.140180
v -0.245613 1.071445 0.300199
v -0.045220 1.188572 0.294407
v -0.099271 1.328332 0.452627
v -0.299663 1.211205 0.458419
v 0.174121 0.903257 0.472921
v 0.139211 1.132831 0.530591
v 0.000000 -0.165114 -0.188067
v 0.110631 1.144826 0.395220
v 0.082608 1.253968 0.541657
v -0.044622 1.286308 0.513072
v -0.023183 1.295577 0.644734
v -0.110792 1.083076 0.832352
v -0.338476 1.541603 0.072020
v -0.208757 1.163465 0.689640
v -0.006443 1.141330 0.341154
v 0.000000 -0.160024 0.186899
v -0.213948 0.999329 0.379210
v -0.247254 1.127980 0.535884
v -0.187500 -0.162569 -0.000584
v -0.191619 0.959709 0.680238
v -0.065932 0.917773 0.723890
v 0.003025 0.752527 0.580201
v 0.090909 0.932572 0.691391
v 0.035716 1.022480 0.302740
v 0.187500 -0.162569 -0.000584
v -0.168300 0.870057 0.419957
v -0.226259 0.921466 0.524628
v 0.081556 1.168037 0.764028
v -0.174500 1.589211 0.111944
v -0.112423 1.468487 0.000946
v -0.276399 1.420879 -0.038979
v -0.171603 1.884200 1.072107
v -0.214044 1.891973 0.960605
v -0.322248 1.859216 0.999507
v -0.279807 1.851444 1.111009
v -0.187500 -0.036032 -0.189819
v 0.000000 0.148415 -0.251928
v 0.187500 -0.036032 -0.189819
v 0.250000 0.138622 -0.004673
v 0.187500 -0.030942 0.185146
v 0.000000 0.128829 0.242583
v -0.187500 -0.030942 0.185146
v -0.250000 0.138622 -0.004673
v -0.187500 0.347744 -0.186327
v 0.000000 0.568060 -0.190815
v 0.187500 0.347744 -0.186327
v 0.244708 0.472327 0.028620
v 0.187500 0.273719 0.172309
v 0.000000 0.376595 0.248055
v -0.187500 0.273719 0.172309
v -0.244708 0.472327 0.028620
v -0.119697 0.919390 0.262065
v 0.151815 0.923087 0.271444
v 0.004588 0.874865 0.124597
v 0.147227 0.701655 0.466562
v 0.210114 0.727885 0.272382
v -0.142638 0.700916 0.464687
v 0.000000 0.580167 0.418292
v -0.205526 0.727146 0.270507
v -0.382527 1.265595 0.207619
v -0.290535 1.278052 0.062137
v -0.160468 1.211392 0.115738
v -0.276211 1.139397 0.217372
v -0.072867 1.346103 0.110339
v -0.060368 1.388249 0.257282
v -0.066964 1.239151 0.230694
v -0.155270 1.505337 0.260242
v -0.282428 1.442453 0.349163
v -0.140726 1.386159 0.390770
v -0.372939 1.437286 0.212040
v -0.349973 1.286405 0.377449
v -0.388334 1.408858 0.050004
v -0.162281 1.335742 -0.021070
v -0.060383 1.504075 0.129853
v -0.286435 1.577190 0.200927
v -0.014922 1.193625 0.908651
v -0.140850 1.250942 0.950204
v -0.206144 1.193109 0.835709
v -0.225065 1.331232 0.812919
v -0.154817 1.325403 0.698519
v -0.070275 1.413994 0.768616
v 0.039863 1.327981 0.766842
v 0.013941 1.333705 0.905901
v -0.070885 1.353170 1.018037
v -0.187519 1.425734 1.054103
v -0.237333 1.347298 0.948927
v -0.254197 1.470823 0.914687
v -0.183213 1.449750 0.812249
v -0.111880 1.531819 0.867589
v -0.016765 1.455622 0.881358
v -0.045202 1.486730 1.007004
v -0.128997 1.555685 1.095405
v -0.244019 1.653491 1.104540
v -0.281362 1.537322 1.024797
v -0.301711 1.668099 0.957147
v -0.220498 1.596694 0.880063
v -0.157969 1.713811 0.905891
v -0.068133 1.615057 0.950671
v -0.100277 1.699203 1.053283
v -0.184800 1.783340 1.134198
v -0.335444 1.758356 1.061599
v -0.269682 1.798885 0.911194
v -0.119037 1.823868 0.983794
v -0.171623 0.709939 0.003497
v 0.171623 0.709939 0.003497
v 0.171623 0.515854 0.276862
v -0.171623 0.515854 0.276862
v -0.319012 1.110788 0.380036
v -0.135627 1.096323 0.258469
v -0.018424 1.286479 0.371349
v -0.216703 1.305963 0.495798
v -0.138889 -0.130989 -0.139914
v 0.138889 -0.130989 -0.139914
v 0.138889 -0.127219 0.137838
v -0.138889 -0.127219 0.137838
v -0.183531 0.544127 -0.135956
v 0.183531 0.544127 -0.135956
v 0.183531 0.400528 0.193196
v -0.183531 0.400528 0.193196
v -0.346630 1.457185 0.020765
v -0.179184 1.403026 -0.031882
v -0.103703 1.527716 0.079913
v -0.271149 1.581876 0.132560
v -0.099691 1.444960 1.065407
v -0.256437 1.433030 0.996170
v -0.199709 1.512593 0.856284
v -0.042962 1.524523 0.925521
v -0.210384 1.845055 1.115002
v -0.321973 1.826549 1.061225
v -0.273260 1.856570 0.949814
v -0.161671 1.875077 1.003592
v -0.150703 0.837565 0.160137
v 0.158733 0.838489 0.162481
v 0.157586 0.617096 0.381815
v -0.156439 0.616911 0.381346
v -0.364472 1.187649 0.293900
v -0.154078 1.152836 0.184194
v -0.050603 1.337280 0.313883
v -0.264721 1.373348 0.424309
v -0.187500 0.145967 -0.190114
v 0.187500 0.145967 -0.190114
v 0.187500 0.131278 0.180769
v -0.187500 0.131278 0.180769
v -0.106739 1.009316 0.312366
v 0.150910 1.025214 0.364974
v 0.128888 0.797493 0.560092
v -0.160628 0.794698 0.569851
v -0.386154 1.340656 0.125038
v -0.161100 1.272269 0.048762
v -0.059651 1.442732 0.197341
v -0.284705 1.511120 0.273616
v 0.013832 1.072118 0.832861
v -0.195015 1.095890 0.768506
v -0.159261 1.264442 0.601292
v 0.086735 1.257423 0.666909
v -0.042617 1.272122 0.962662
v -0.221439 1.270525 0.892348
v -0.168940 1.392557 0.756735
v 0.010747 1.394669 0.825894
v -0.157726 1.672695 1.115759
v -0.308800 1.649367 1.043658
v -0.244263 1.694607 0.894671
v -0.093188 1.717935 0.966773
v -0.266243 1.025299 0.459216
v 0.050065 1.241491 0.428649
vn -0.3147 0.0002 -0.9492
vn 0.3147 0.0002 -0.9492
vn 0.3269 -0.4858 -0.8107
vn -0.3269 -0.4858 -0.8107
vn 0.9484 0.2629 -0.1769
vn 0.6722 0.6494 -0.3554
vn 0.9066 0.4196 0.0438
vn 0.2739 0.9510 -0.1433
vn -0.0727 0.9957 -0.0583
vn 0.3031 0.9502 -0.0725
vn -0.3080 0.2433 -0.9198
vn 0.3080 0.2433 -0.9198
vn 0.3091 0.0221 -0.9508
vn -0.3091 0.0221 -0.9508
vn -0.9481 0.0064 0.3179
vn -0.9481 -0.0024 -0.3178
vn -0.8172 -0.4791 -0.3204
vn -0.8172 -0.4703 0.3333
vn 0.3144 0.0279 0.9489
vn -0.3144 0.0279 0.9489
vn -0.3269 -0.4636 0.8235
vn 0.3269 -0.4636 0.8235
vn 0.2391 0.9707 -0.0233
vn -0.3782 0.8683 -0.3209
vn -0.6477 0.7022 0.2955
vn -0.0304 0.8046 0.5930
vn -0.5996 -0.4353 0.6716
vn -0.4336 -0.5963 0.6756
vn -0.0906 -0.5634 0.8212
vn -0.1853 -0.6877 0.7020
vn 0.3795 -0.6131 0.6929
vn 0.2177 -0.5735 0.7897
vn 0.9481 -0.0024 -0.3178
vn 0.9481 0.0064 0.3179
vn 0.8172 -0.4703 0.3333
vn 0.8172 -0.4791 -0.3204
vn -0.9517 -0.1123 0.2859
vn -0.9179 -0.2864 0.2747
vn -0.9753 -0.0913 0.2010
vn -0.9502 0.2550 0.1791
vn 0.0407 0.3203 -0.9464
vn 0.3621 0.4553 -0.8134
vn 0.4086 0.3778 -0.8308
vn -0.1252 0.8542 -0.5046
vn 0.2783 0.7237 -0.6315
vn 0.0964 0.4233 -0.9009
vn -0.3070 0.5538 -0.7740
vn -0.8424 -0.4891 -0.2262
vn -0.8187 -0.4746 -0.3234
vn -0.5857 -0.4245 -0.6905
vn 0.8609 -0.1184 0.4948
vn 0.9253 -0.0998 0.3658
vn 0.9885 0.1316 0.0743
vn 0.9654 0.1449 0.2166
vn -0.2566 -0.9352 -0.2440
vn 0.2566 -0.9352 -0.2440
vn 0.2566 -0.9283 0.2692
vn -0.2566 -0.9283 0.2692
vn 0.9459 0.0987 -0.3090
vn 0.9438 -0.0341 0.3287
vn 0.9455 0.0112 0.3254
vn 0.9460 0.0013 -0.3240
vn 0.3047 -0.1385 0.9423
vn -0.3047 -0.1385 0.9423
vn -0.3054 0.0655 0.9500
vn 0.3054 0.0655 0.9500
vn -0.9438 -0.0341 0.3287
vn -0.9459 0.0987 -0.3090
vn -0.9460 0.0013 -0.3240
vn -0.9455 0.0112 0.3254
vn -0.2168 0.6233 -0.7513
vn 0.3577 0.6338 -0.6858
vn 0.3364 0.7414 -0.5807
vn -0.3191 0.7784 -0.5406
vn 0.9746 0.2062 -0.0876
vn 0.9372 -0.1352 0.3214
vn 0.9440 -0.1697 0.2828
vn 0.9493 0.2829 -0.1368
vn 0.3252 -0.6377 0.6982
vn -0.2749 -0.6998 0.6593
vn -0.3221 -0.6463 0.6918
vn 0.3138 -0.6538 0.6885
vn -0.9887 -0.1307 0.0731
vn -0.9376 0.2845 -0.1997
vn -0.9122 0.4043 -0.0673
vn -0.9515 -0.0769 0.2978
vn -0.6812 -0.5544 -0.4782
vn -0.1026 -0.7372 -0.6679
vn -0.0955 -0.7577 -0.6455
vn -0.6795 -0.6046 -0.4156
vn 0.7387 -0.4985 -0.4537
vn 0.9949 -0.0794 -0.0618
vn 0.9882 -0.0165 -0.1526
vn 0.7352 -0.4754 -0.4832
vn 0.6823 0.5406 0.4922
vn 0.1026 0.7371 0.6679
vn 0.1017 0.7441 0.6603
vn 0.6775 0.6057 0.4173
vn -0.7377 0.4860 0.4686
vn -0.9944 0.0532 0.0912
vn -0.9811 -0.0278 0.1915
vn -0.7258 0.4138 0.5496
vn -0.6153 -0.0776 -0.7845
vn -0.0444 -0.2622 -0.9640
vn -0.1018 -0.7372 -0.6680
vn -0.6787 -0.5523 -0.4840
vn 0.5769 -0.0819 -0.8127
vn 0.8342 0.3433 -0.4316
vn 0.9948 -0.0694 -0.0743
vn 0.7356 -0.4960 -0.4614
vn 0.5990 0.8006 -0.0110
vn 0.0281 0.9853 0.1685
vn 0.1018 0.7372 0.6680
vn 0.6789 0.5480 0.4887
vn -0.5931 0.8049 0.0172
vn -0.8505 0.3798 -0.3640
vn -0.9946 0.0608 0.0838
vn -0.7354 0.4918 0.4662
vn 0.0165 -0.5628 0.8264
vn -0.5646 -0.5611 0.6054
vn -0.5690 -0.5126 0.6430
vn -0.0219 -0.5549 0.8316
vn -0.9883 -0.1439 -0.0514
vn -0.8139 0.2717 -0.5136
vn -0.8998 0.3162 -0.3006
vn -0.9938 -0.1042 0.0389
vn -0.0595 0.6537 -0.7544
vn 0.5173 0.6733 -0.5283
vn 0.4109 0.8060 -0.4260
vn -0.0531 0.8126 -0.5804
vn 0.9485 0.2698 0.1657
vn 0.7762 -0.1479 0.6130
vn 0.8031 -0.1810 0.5677
vn 0.9463 0.2429 0.2134
vn -0.0131 -0.4618 0.8869
vn -0.5909 -0.4871 0.6431
vn -0.5691 -0.5619 0.6003
vn 0.0158 -0.5603 0.8281
vn -0.9821 -0.1611 -0.0974
vn -0.7865 0.1968 -0.5855
vn -0.8112 0.2836 -0.5114
vn -0.9872 -0.1421 -0.0723
vn -0.0190 0.5703 -0.8212
vn 0.5578 0.5910 -0.5827
vn 0.5197 0.6914 -0.5019
vn -0.0604 0.6898 -0.7215
vn 0.9536 0.2604 0.1513
vn 0.7591 -0.0927 0.6444
vn 0.7762 -0.1479 0.6129
vn 0.9477 0.2722 0.1664
vn -0.0846 -0.1908 0.9780
vn -0.6459 -0.2799 0.7103
vn -0.6276 -0.3444 0.6982
vn -0.0630 -0.2764 0.9590
vn -0.9682 -0.2159 -0.1262
vn -0.7176 -0.0679 -0.6931
vn -0.7368 0.0113 -0.6760
vn -0.9727 -0.1986 -0.1200
vn 0.0900 0.1684 -0.9816
vn 0.6486 0.2668 -0.7128
vn 0.6236 0.3632 -0.6923
vn 0.0607 0.2855 -0.9564
vn 0.9682 0.2160 0.1262
vn 0.7203 0.0587 0.6912
vn 0.7299 0.0108 0.6834
vn 0.9642 0.2302 0.1319
vn -0.1104 0.1789 0.9777
vn -0.7303 0.0761 0.6789
vn -0.6495 -0.2762 0.7084
vn -0.0863 -0.1843 0.9791
vn -0.9922 0.1241 -0.0093
vn -0.7216 0.2909 -0.6282
vn -0.7212 -0.0657 -0.6896
vn -0.9682 -0.2160 -0.1261
vn -0.0537 0.4930 -0.8683
vn 0.5661 0.5958 -0.5696
vn 0.6505 0.2718 -0.7092
vn 0.0881 0.1768 -0.9803
vn 0.8281 0.5479 0.1186
vn 0.5575 0.3811 0.7375
vn 0.7220 0.0626 0.6891
vn 0.9682 0.2160 0.1261
vn -0.3050 0.7535 -0.5824
vn 0.3086 0.7459 -0.5903
vn 0.3027 0.6224 -0.7218
vn -0.3027 0.6224 -0.7218
vn 0.9390 0.3071 -0.1549
vn 0.9451 -0.1656 0.2816
vn 0.9453 -0.1266 0.3005
vn 0.9387 0.2654 -0.2201
vn 0.3093 -0.6664 0.6784
vn -0.3109 -0.6646 0.6794
vn -0.3071 -0.5405 0.7833
vn 0.3071 -0.5405 0.7833
vn -0.9472 -0.1434 0.2867
vn -0.9313 0.3363 -0.1399
vn -0.9387 0.2654 -0.2201
vn -0.9453 -0.1266 0.3005
vn -0.6599 -0.6910 -0.2952
vn -0.0652 -0.7920 -0.6071
vn -0.2406 -0.6745 -0.6979
vn -0.6993 -0.6571 -0.2814
vn 0.7048 -0.4461 -0.5515
vn 0.9337 0.0795 -0.3490
vn 0.7632 0.1914 -0.6172
vn 0.5846 -0.2770 -0.7626
vn 0.6338 0.7252 0.2691
vn 0.0952 0.7568 0.6467
vn 0.0620 0.9077 0.4151
vn 0.5118 0.8537 0.0956
vn -0.6591 0.2882 0.6946
vn -0.9114 -0.1551 0.3812
vn -0.8902 -0.1582 0.4273
vn -0.7352 0.2666 0.6232
usemtl brunTronc
s off
f 43//81 129//81 233//81 130//81
f 43//82 130//82 234//82 131//82
f 43//83 131//83 206//83 100//83
f 43//84 100//84 205//84 129//84
f 44//85 99//85 238//85 101//85
f 44//86 101//86 258//86 102//86
f 44//87 102//87 248//87 99//87
f 45//88 102//88 258//88 103//88
f 45//89 103//89 247//89 104//89
f 45//90 104//90 248//90 102//90
f 46//91 137//91 209//91 138//91
f 46//92 138//92 210//92 139//92
f 46//93 139//93 234//93 130//93
f 46//94 130//94 233//94 137//94
f 47//95 135//95 236//95 136//95
f 47//96 136//96 233//96 129//96
f 47//97 129//97 205//97 112//97
f 47//98 112//98 208//98 135//98
f 48//99 133//99 235//99 134//99
f 48//100 134//100 236//100 135//100
f 48//101 135//101 208//101 109//101
f 48//102 109//102 207//102 133//102
f 49//103 125//103 224//103 126//103
f 49//104 126//104 223//104 127//104
f 49//105 127//105 222//105 128//105
f 49//106 128//106 221//106 125//106
f 50//107 105//107 246//107 113//107
f 50//108 113//108 240//108 114//108
f 50//109 114//109 245//109 105//109
f 51//110 114//110 240//110 115//110
f 51//111 115//111 239//111 116//111
f 51//112 116//112 245//112 114//112
f 52//113 131//113 234//113 132//113
f 52//114 132//114 235//114 133//114
f 52//115 133//115 207//115 118//115
f 52//116 118//116 206//116 131//116
f 53//117 111//117 257//117 120//117
f 53//118 120//118 240//118 113//118
f 53//119 113//119 246//119 107//119
f 53//120 107//120 247//120 111//120
f 54//121 117//121 237//121 108//121
f 54//122 108//122 258//122 101//122
f 54//123 101//123 238//123 117//123
f 55//124 106//124 216//124 122//124
f 55//125 122//125 215//125 123//125
f 55//126 123//126 214//126 124//126
f 55//127 124//127 213//127 106//127
f 56//128 119//128 240//128 120//128
f 56//129 120//129 257//129 110//129
f 56//130 110//130 237//130 119//130
f 57//131 121//131 245//131 116//131
f 57//132 116//132 239//132 98//132
f 57//133 98//133 238//133 99//133
f 57//134 99//134 248//134 121//134
f 58//135 112//135 205//135 100//135
f 58//136 100//136 206//136 118//136
f 58//137 118//137 207//137 109//137
f 58//138 109//138 208//138 112//138
f 59//139 139//139 210//139 140//139
f 59//140 140//140 211//140 141//140
f 59//141 141//141 235//141 132//141
f 59//142 132//142 234//142 139//142
f 60//143 141//143 211//143 142//143
f 60//144 142//144 212//144 143//144
f 60//145 143//145 236//145 134//145
f 60//146 134//146 235//146 141//146
f 61//147 143//147 212//147 144//147
f 61//148 144//148 209//148 137//148
f 61//149 137//149 233//149 136//149
f 61//150 136//150 236//150 143//150
f 62//151 145//151 237//151 117//151
f 62//152 117//152 238//152 146//152
f 62//153 146//153 226//153 147//153
f 62//154 147//154 225//154 145//154
f 63//155 146//155 238//155 98//155
f 63//156 98//156 239//156 148//156
f 63//157 148//157 227//157 149//157
f 63//158 149//158 226//158 146//158
f 64//159 148//159 239//159 115//159
f 64//160 115//160 240//160 150//160
f 64//161 150//161 228//161 151//161
f 64//162 151//162 227//162 148//162
f 65//163 150//163 240//163 119//163
f 65//164 119//164 237//164 145//164
f 65//165 145//165 225//165 152//165
f 65//166 152//166 228//166 150//166
f 66//167 153//167 241//167 154//167
f 66//168 154//168 242//168 155//168
f 66//169 155//169 230//169 156//169
f 66//170 156//170 229//170 153//170
f 67//171 155//171 242//171 157//171
f 67//172 157//172 243//172 158//172
f 67//173 158//173 231//173 159//173
f 67//174 159//174 230//174 155//174
f 68//175 158//175 243//175 160//175
f 68//176 160//176 244//176 161//176
f 68//177 161//177 232//177 162//177
f 68//178 162//178 231//178 158//178
f 69//179 161//179 244//179 163//179
f 69//180 163//180 241//180 153//180
f 69//181 153//181 229//181 164//181
f 69//182 164//182 232//182 161//182
f 70//183 165//183 213//183 124//183
f 70//184 124//184 214//184 166//184
f 70//185 166//185 242//185 154//185
f 70//186 154//186 241//186 165//186
f 71//187 166//187 214//187 123//187
f 71//188 123//188 215//188 167//188
f 71//189 167//189 243//189 157//189
f 71//190 157//190 242//190 166//190
f 72//191 167//191 215//191 122//191
f 72//192 122//192 216//192 168//192
f 72//193 168//193 244//193 160//193
f 72//194 160//194 243//194 167//194
f 73//195 168//195 216//195 106//195
f 73//196 106//196 213//196 165//196
f 73//197 165//197 241//197 163//197
f 73//198 163//198 244//198 168//198
f 74//199 169//199 249//199 170//199
f 74//200 170//200 250//200 171//200
f 74//201 171//201 246//201 105//201
f 74//202 105//202 245//202 169//202
f 75//203 171//203 250//203 172//203
f 75//204 172//204 251//204 173//204
f 75//205 173//205 247//205 107//205
f 75//206 107//206 246//206 171//206
f 76//207 173//207 251//207 174//207
f 76//208 174//208 252//208 175//208
f 76//209 175//209 248//209 104//209
f 76//210 104//210 247//210 173//210
f 77//211 175//211 252//211 176//211
f 77//212 176//212 249//212 169//212
f 77//213 169//213 245//213 121//213
f 77//214 121//214 248//214 175//214
f 78//215 177//215 217//215 178//215
f 78//216 178//216 218//216 179//216
f 78//217 179//217 250//217 170//217
f 78//218 170//218 249//218 177//218
f 79//219 179//219 218//219 180//219
f 79//220 180//220 219//220 181//220
f 79//221 181//221 251//221 172//221
f 79//222 172//222 250//222 179//222
f 80//223 181//223 219//223 182//223
f 80//224 182//224 220//224 183//224
f 80//225 183//225 252//225 174//225
f 80//226 174//226 251//226 181//226
f 81//227 183//227 220//227 184//227
f 81//228 184//228 217//228 177//228
f 81//229 177//229 249//229 176//229
f 81//230 176//230 252//230 183//230
f 82//231 185//231 253//231 186//231
f 82//232 186//232 254//232 187//232
f 82//233 187//233 218//233 178//233
f 82//234 178//234 217//234 185//234
f 83//235 187//235 254//235 188//235
f 83//236 188//236 255//236 189//236
f 83//237 189//237 219//237 180//237
f 83//238 180//238 218//238 187//238
f 84//239 189//239 255//239 190//239
f 84//240 190//240 256//240 191//240
f 84//241 191//241 220//241 182//241
f 84//242 182//242 219//242 189//242
f 85//243 191//243 256//243 192//243
f 85//244 192//244 253//244 185//244
f 85//245 185//245 217//245 184//245
f 85//246 184//246 220//246 191//246
f 86//247 193//247 221//247 128//247
f 86//248 128//248 222//248 194//248
f 86//249 194//249 254//249 186//249
f 86//250 186//250 253//250 193//250
f 87//251 194//251 222//251 127//251
f 87//252 127//252 223//252 195//252
f 87//253 195//253 255//253 188//253
f 87//254 188//254 254//254 194//254
f 88//255 195//255 223//255 126//255
f 88//256 126//256 224//256 196//256
f 88//257 196//257 256//257 190//257
f 88//258 190//258 255//258 195//258
f 89//259 196//259 224//259 125//259
f 89//260 125//260 221//260 193//260
f 89//261 193//261 253//261 192//261
f 89//262 192//262 256//262 196//262
f 90//263 197//263 225//263 147//263
f 90//264 147//264 226//264 198//264
f 90//265 198//265 210//265 138//265
f 90//266 138//266 209//266 197//266
f 91//267 198//267 226//267 149//267
f 91//268 149//268 227//268 199//268
f 91//269 199//269 211//269 140//269
f 91//270 140//270 210//270 198//270
f 92//271 199//271 227//271 151//271
f 92//272 151//272 228//272 200//272
f 92//273 200//273 212//273 142//273
f 92//274 142//274 211//274 199//274
f 93//275 200//275 228//275 152//275
f 93//276 152//276 225//276 197//276
f 93//277 197//277 209//277 144//277
f 93//278 144//278 212//278 200//278
f 94//279 201//279 229//279 156//279
f 94//280 156//280 230//280 202//280
f 94//281 202//281 237//281 110//281
f 94//282 110//282 257//282 201//282
f 95//283 202//283 230//283 159//283
f 95//284 159//284 231//284 203//284
f 95//285 203//285 258//285 108//285
f 95//286 108//286 237//286 202//286
f 96//287 203//287 231//287 162//287
f 96//288 162//288 232//288 204//288
f 96//289 204//289 247//289 103//289
f 96//290 103//290 258//290 203//290
f 97//291 204//291 232//291 164//291
f 97//292 164//292 229//292 201//292
f 97//293 201//293 257//293 111//293
f 97//294 111//294 247//294 204//294
