# Blender v2.79 (sub 0) OBJ File: 'vegetaux_buisson.blend'
# www.blender.org
mtllib vegetaux_buisson2.mtl
o Icosphere.001
v -0.038640 0.014510 0.116568
v 0.527000 0.082709 -0.225621
v 0.425606 0.082709 0.546163
v -0.238246 0.082585 0.753311
v -0.724205 0.080956 -0.009409
v -0.111202 0.079816 -0.569637
v 0.589620 0.572545 0.184354
v 0.106635 0.554180 0.749326
v -0.680050 0.503738 0.393112
v -0.636776 0.518559 -0.394765
v 0.257928 0.514503 -0.537364
v -0.178699 0.788836 0.072993
v 0.225043 0.011354 0.353770
v 0.282730 0.011311 -0.100422
v 0.594894 0.059293 0.196797
v 0.291298 0.059184 -0.492021
v -0.090080 0.003672 -0.286664
v -0.164026 0.007747 0.490245
v 0.131954 0.059293 0.728609
v -0.452360 0.003016 0.049657
v -0.581884 0.056607 0.408741
v -0.525955 0.057458 -0.346056
v 0.478692 0.281268 -0.470038
v 0.138854 0.268094 -0.666319
v 0.599095 0.281944 0.421652
v 0.656499 0.281944 -0.029985
v -0.043334 0.281268 0.869486
v 0.317180 0.281944 0.728027
v -0.798583 0.269096 0.202654
v -0.513949 0.268094 0.669474
v -0.425783 0.269096 -0.573241
v -0.768642 0.273307 -0.250732
v 0.459921 0.599309 -0.230774
v 0.371145 0.624883 0.510502
v -0.299067 0.556429 0.697224
v -0.780507 0.563193 -0.032770
v -0.212760 0.546893 -0.554711
v 0.285761 0.774802 0.132344
v 0.044617 0.720579 -0.286474
v -0.014155 0.747632 0.483805
v -0.515754 0.721755 0.248880
v -0.504870 0.736847 -0.217364
v -0.787266 0.034553 -0.249122
v -1.154399 0.066077 -0.523788
v -0.773808 0.066077 -0.803801
v -0.434267 0.061869 -0.367398
v -0.630715 0.061119 0.167522
v -1.043183 0.066077 0.055748
v -1.009798 0.358325 -0.704940
v -0.540678 0.348211 -0.613177
v -0.475939 0.281229 -0.004525
v -0.844947 0.343059 0.247961
v -1.151520 0.358323 -0.178535
v -0.799016 0.577949 -0.145120
v -0.773876 0.023662 -0.567241
v -0.994648 0.023662 -0.406449
v -1.004240 0.052158 -0.724111
v -1.136547 0.052158 -0.221593
v -0.933706 0.023662 -0.065916
v -0.582533 0.023497 -0.312966
v -0.553250 0.052158 -0.638424
v -0.694562 0.023243 -0.001876
v -0.495037 0.042037 -0.057910
v -0.842528 0.052158 0.181691
v -1.211997 0.184507 -0.378234
v -1.149679 0.184507 -0.039165
v -0.916588 0.184507 -0.855274
v -1.140953 0.184507 -0.688754
v -0.424422 0.179004 -0.547527
v -0.627075 0.184507 -0.804256
v -0.512784 0.152600 0.131060
v -0.397026 0.150799 -0.185474
v -0.971597 0.184507 0.210481
v -0.727656 0.176479 0.278011
v -1.127616 0.393862 -0.461055
v -0.771433 0.393862 -0.722824
v -0.452062 0.331844 -0.309299
v -0.634100 0.336721 0.197388
v -1.031207 0.392323 0.091129
v -0.916601 0.548872 -0.449092
v -1.007921 0.545873 -0.142145
v -0.652936 0.505486 -0.391674
v -0.605322 0.455633 -0.040720
v -0.822808 0.506186 0.108829
v -0.234202 0.017180 -0.761484
v 0.039867 0.038575 -0.980546
v 0.126840 0.038575 -0.695726
v -0.246645 0.036733 -0.490532
v -0.565146 0.038575 -0.669297
v -0.409243 0.038575 -0.974889
v 0.124051 0.236889 -0.858555
v -0.051611 0.215498 -0.557440
v -0.475443 0.228244 -0.535190
v -0.588246 0.236923 -0.836137
v -0.207559 0.236922 -1.027012
v -0.324365 0.413678 -0.755176
v -0.017595 0.009788 -0.722039
v -0.071307 0.009788 -0.892163
v 0.134811 0.029128 -0.850430
v -0.176068 0.029128 -1.013854
v -0.337738 0.009788 -0.885351
v -0.244309 0.009788 -0.601979
v -0.031659 0.028521 -0.564659
v -0.436445 0.009788 -0.704710
v -0.437792 0.029128 -0.545824
v -0.540815 0.029128 -0.833353
v -0.046569 0.118953 -1.045973
v -0.313324 0.118953 -1.043232
v 0.192100 0.118953 -0.780562
v 0.142575 0.118953 -0.945297
v -0.127489 0.108059 -0.481447
v 0.087111 0.115353 -0.606617
v -0.557092 0.118953 -0.575992
v -0.374215 0.112966 -0.469438
v -0.538994 0.118953 -0.932665
v -0.625412 0.118953 -0.752201
v -0.009800 0.261042 -0.971820
v 0.077033 0.251471 -0.702252
v -0.280763 0.235846 -0.504500
v -0.585239 0.260804 -0.672668
v -0.440915 0.261042 -0.963238
v -0.073312 0.362847 -0.816231
v -0.275779 0.370801 -0.914689
v -0.178154 0.342081 -0.637641
v -0.433605 0.353836 -0.624098
v -0.499027 0.370102 -0.800807
vn 0.0257 -0.9990 0.0353
vn -0.2353 -0.9714 -0.0308
vn -0.0438 -0.9985 0.0323
vn -0.0610 -0.9979 -0.0228
vn 0.0117 -0.9987 -0.0501
vn -0.8835 -0.4674 0.0307
vn -0.2272 -0.6055 -0.7628
vn 0.7696 -0.5537 -0.3180
vn 0.6320 -0.6415 0.4347
vn -0.4579 -0.5910 0.6642
vn -0.9559 -0.1961 -0.2187
vn 0.1695 -0.2137 -0.9621
vn 0.9710 -0.2211 -0.0907
vn 0.5060 -0.3357 0.7945
vn -0.7866 -0.2577 0.5611
vn -0.5364 0.7587 -0.3697
vn 0.3610 0.8370 -0.4113
vn 0.7761 0.6094 0.1620
vn 0.2006 0.6198 0.7587
vn -0.7874 0.5481 0.2822
vn -0.1431 0.9558 0.2567
vn -0.4560 0.7636 0.4571
vn -0.3989 0.6258 0.6703
vn 0.3979 0.8724 0.2838
vn 0.4781 0.7613 0.4380
vn 0.7014 0.6001 0.3845
vn 0.5130 0.8568 0.0521
vn 0.6491 0.7604 0.0199
vn 0.6823 0.7132 -0.1606
vn 0.1956 0.9662 -0.1681
vn 0.2307 0.8941 -0.3839
vn -0.1634 0.8188 -0.5503
vn -0.1522 0.9877 -0.0356
vn -0.5779 0.7994 -0.1641
vn -0.7948 0.6068 0.0091
vn -0.8893 0.2804 0.3614
vn -0.8101 0.0995 0.5778
vn -0.5749 0.2772 0.7698
vn 0.2297 0.3271 0.9167
vn 0.5687 0.0798 0.8186
vn 0.7853 0.3283 0.5249
vn 0.9191 0.3708 0.1336
vn 0.9649 0.2571 -0.0530
vn 0.8418 0.4934 -0.2189
vn 0.4415 0.5730 -0.6905
vn 0.1551 0.4492 -0.8799
vn -0.1484 0.6002 -0.7860
vn -0.7387 0.5172 -0.4322
vn -0.9325 0.2914 -0.2133
vn -0.9315 0.3623 -0.0332
vn -0.2672 -0.0143 0.9635
vn -0.2535 -0.4351 0.8639
vn 0.0780 -0.6546 0.7519
vn 0.9353 0.0921 0.3415
vn 0.8588 -0.4029 0.3164
vn 0.8036 -0.5829 0.1204
vn 0.7543 0.2896 -0.5892
vn 0.7383 -0.3272 -0.5898
vn 0.4654 -0.5791 -0.6694
vn -0.5580 0.3511 -0.7519
vn -0.5531 -0.3723 -0.7453
vn -0.6747 -0.5724 -0.4660
vn -0.9747 0.1333 0.1791
vn -0.9292 -0.3276 0.1708
vn -0.8163 -0.4939 0.2996
vn -0.1783 -0.9679 0.1770
vn -0.0358 -0.9912 0.1273
vn 0.0547 -0.9786 0.1982
vn 0.1386 -0.9763 0.1661
vn 0.1039 -0.9939 0.0366
vn 0.2458 -0.9692 -0.0139
vn 0.2276 -0.9716 -0.0651
vn 0.1029 -0.9916 -0.0781
vn 0.0700 -0.9819 -0.1760
vn -0.2327 -0.9642 0.1267
vn -0.1607 -0.9866 0.0288
vn 0.0607 -0.9981 -0.0109
vn -0.0016 -0.9843 -0.1765
vn -0.0636 -0.9942 -0.0873
vn -0.1994 -0.9765 -0.0816
vn -0.0362 -0.9993 0.0114
vn 0.0765 -0.9724 -0.2204
vn -0.0254 -0.9985 -0.0479
vn 0.0239 -0.9987 -0.0448
vn 0.0431 -0.9988 0.0236
vn 0.1524 -0.5202 -0.8404
vn 0.8123 -0.5781 0.0772
vn 0.2576 -0.5329 0.8060
vn -0.5846 -0.5891 0.5579
vn -0.5601 -0.6093 -0.5613
vn 0.4595 -0.2086 -0.8633
vn 0.8476 -0.1515 0.5085
vn 0.0437 -0.1978 0.9793
vn -0.8864 -0.3101 0.3437
vn -0.4280 -0.2320 -0.8735
vn 0.4479 0.8209 -0.3543
vn 0.3997 0.7413 0.5392
vn -0.1471 0.6037 0.7835
vn -0.8205 0.5676 -0.0678
vn -0.1565 0.5868 -0.7945
vn -0.1562 0.9409 -0.3005
vn -0.3104 0.7341 -0.6039
vn -0.5943 0.5530 -0.5839
vn -0.2845 0.9393 0.1918
vn -0.5656 0.7754 0.2808
vn -0.5524 0.5963 0.5824
vn 0.0651 0.8861 0.4588
vn 0.0693 0.7530 0.6543
vn 0.2230 0.6710 0.7072
vn 0.2513 0.9334 0.2560
vn 0.3888 0.8608 0.3283
vn 0.5492 0.8311 0.0877
vn 0.1430 0.9658 -0.2161
vn 0.2546 0.8536 -0.4546
vn 0.1213 0.6735 -0.7291
vn -0.2184 0.3224 -0.9211
vn -0.4373 0.1098 -0.8926
vn -0.6509 0.2992 -0.6977
vn -0.9583 0.2848 -0.0240
vn -0.9306 0.0613 0.3608
vn -0.7118 0.2936 0.6380
vn -0.1585 0.3805 0.9111
vn 0.0519 0.2373 0.9700
vn 0.2390 0.4426 0.8643
vn 0.5850 0.4948 0.6426
vn 0.7827 0.3956 0.4806
vn 0.7935 0.5799 0.1846
vn 0.6006 0.5328 -0.5962
vn 0.4450 0.3211 -0.8360
vn 0.1978 0.4128 -0.8891
vn -0.9017 -0.0231 -0.4318
vn -0.8196 -0.4173 -0.3925
vn -0.7590 -0.6468 -0.0753
vn -0.5015 0.0522 0.8636
vn -0.4774 -0.3658 0.7989
vn -0.2078 -0.5680 0.7964
vn 0.4809 0.2540 0.8392
vn 0.4916 -0.2728 0.8270
vn 0.5795 -0.4715 0.6647
vn 0.9004 0.3405 -0.2707
vn 0.8932 -0.3608 -0.2685
vn 0.6328 -0.5874 -0.5044
vn -0.0102 0.1451 -0.9894
vn -0.0097 -0.3242 -0.9459
vn -0.1612 -0.5206 -0.8385
vn -0.1430 -0.9698 -0.1976
vn -0.1099 -0.9921 -0.0600
vn -0.2117 -0.9770 0.0249
vn -0.1860 -0.9755 0.1172
vn -0.0642 -0.9907 0.1200
vn -0.0291 -0.9717 0.2343
vn 0.0442 -0.9708 0.2356
vn 0.0655 -0.9902 0.1237
vn 0.1707 -0.9765 0.1315
vn -0.0803 -0.9658 -0.2464
vn -0.0039 -0.9881 -0.1537
vn 0.0015 -0.9983 0.0583
vn 0.1828 -0.9807 0.0693
vn 0.0997 -0.9945 -0.0315
vn 0.1247 -0.9789 -0.1620
vn -0.0108 -0.9999 -0.0013
vn 0.2248 -0.9678 -0.1134
vn 0.0033 -0.9999 -0.0170
vn 0.0291 -0.9995 -0.0083
vn 0.0239 -0.9994 0.0238
vn 0.6666 -0.5086 -0.5449
vn 0.7984 -0.4352 0.4161
vn 0.0240 -0.5221 0.8526
vn -0.7849 -0.5738 0.2338
vn -0.3537 -0.6015 -0.7163
vn 0.9027 -0.2289 -0.3644
vn 0.7190 -0.2126 0.6616
vn -0.3826 -0.1571 0.9105
vn -0.9510 -0.3020 -0.0656
vn -0.1567 -0.2785 -0.9476
vn 0.5644 0.8162 -0.1237
vn 0.2307 0.8334 0.5022
vn -0.4982 0.7073 0.5016
vn -0.6543 0.6740 -0.3429
vn 0.0770 0.8016 -0.5929
vn 0.0061 0.9831 -0.1829
vn -0.0396 0.8556 -0.5161
vn -0.2916 0.7032 -0.6485
vn -0.1813 0.9830 0.0276
vn -0.5256 0.8506 0.0153
vn -0.6827 0.6842 0.2565
vn -0.1191 0.9821 0.1462
vn -0.2502 0.8629 0.4391
vn -0.0738 0.7897 0.6090
vn 0.0183 0.9955 0.0925
vn 0.2704 0.9143 0.3014
vn 0.5160 0.8298 0.2125
vn 0.0498 0.9864 -0.1564
vn 0.3040 0.9067 -0.2924
vn 0.3056 0.8467 -0.4356
vn 0.0632 0.4386 -0.8965
vn -0.1595 0.1869 -0.9693
vn -0.3525 0.3287 -0.8762
vn -0.8883 0.2522 -0.3838
vn -0.9978 0.0086 -0.0658
vn -0.9304 0.2622 0.2561
vn -0.6075 0.3859 0.6942
vn -0.3878 0.2025 0.8992
vn -0.1112 0.4510 0.8856
vn 0.5628 0.3778 0.7352
vn 0.7021 0.2993 0.6461
vn 0.7886 0.4041 0.4634
vn 0.8860 0.3895 -0.2517
vn 0.8785 0.3193 -0.3554
vn 0.6715 0.4704 -0.5725
vn -0.6844 -0.0589 -0.7268
vn -0.6267 -0.4128 -0.6609
vn -0.6946 -0.6194 -0.3658
vn -0.8538 0.0087 0.5206
vn -0.8019 -0.3443 0.4882
vn -0.5631 -0.5639 0.6041
vn 0.3572 0.2049 0.9113
vn 0.3502 -0.2890 0.8910
vn 0.5035 -0.4168 0.7568
vn 0.9831 0.1341 0.1249
vn 0.9816 -0.1445 0.1248
vn 0.8935 -0.4170 -0.1667
vn 0.4827 0.2115 -0.8499
vn 0.4822 -0.3264 -0.8130
vn 0.1255 -0.5800 -0.8049
vn -0.0844 -0.9638 -0.2530
vn -0.1060 -0.9876 -0.1161
vn -0.2576 -0.9625 -0.0845
vn -0.2835 -0.9581 0.0407
vn -0.1345 -0.9860 0.0986
vn -0.1570 -0.9607 0.2290
vn -0.0432 -0.9641 0.2621
vn 0.0586 -0.9883 0.1409
vn 0.1823 -0.9686 0.1692
vn 0.0006 -0.9656 -0.2599
vn 0.0798 -0.9897 -0.1192
vn 0.0075 -0.9996 0.0259
vn 0.1927 -0.9684 0.1583
vn 0.1358 -0.9906 0.0173
vn 0.2359 -0.9675 -0.0915
usemtl vertArbres
s off
f 43//1 56//1 55//1
f 44//2 56//2 58//2
f 43//3 55//3 60//3
f 43//4 60//4 62//4
f 43//5 62//5 59//5
f 44//6 58//6 65//6
f 45//7 57//7 67//7
f 46//8 61//8 69//8
f 47//9 63//9 71//9
f 48//10 64//10 73//10
f 44//11 65//11 68//11
f 45//12 67//12 70//12
f 46//13 69//13 72//13
f 47//14 71//14 74//14
f 48//15 73//15 66//15
f 49//16 75//16 80//16
f 50//17 76//17 82//17
f 51//18 77//18 83//18
f 52//19 78//19 84//19
f 53//20 79//20 81//20
f 81//21 84//21 54//21
f 81//22 79//22 84//22
f 79//23 52//23 84//23
f 84//24 83//24 54//24
f 84//25 78//25 83//25
f 78//26 51//26 83//26
f 83//27 82//27 54//27
f 83//28 77//28 82//28
f 77//29 50//29 82//29
f 82//30 80//30 54//30
f 82//31 76//31 80//31
f 76//32 49//32 80//32
f 80//33 81//33 54//33
f 80//34 75//34 81//34
f 75//35 53//35 81//35
f 66//36 79//36 53//36
f 66//37 73//37 79//37
f 73//38 52//38 79//38
f 74//39 78//39 52//39
f 74//40 71//40 78//40
f 71//41 51//41 78//41
f 72//42 77//42 51//42
f 72//43 69//43 77//43
f 69//44 50//44 77//44
f 70//45 76//45 50//45
f 70//46 67//46 76//46
f 67//47 49//47 76//47
f 68//48 75//48 49//48
f 68//49 65//49 75//49
f 65//50 53//50 75//50
f 73//51 74//51 52//51
f 73//52 64//52 74//52
f 64//53 47//53 74//53
f 71//54 72//54 51//54
f 71//55 63//55 72//55
f 63//56 46//56 72//56
f 69//57 70//57 50//57
f 69//58 61//58 70//58
f 61//59 45//59 70//59
f 67//60 68//60 49//60
f 67//61 57//61 68//61
f 57//62 44//62 68//62
f 65//63 66//63 53//63
f 65//64 58//64 66//64
f 58//65 48//65 66//65
f 59//66 64//66 48//66
f 59//67 62//67 64//67
f 62//68 47//68 64//68
f 62//69 63//69 47//69
f 62//70 60//70 63//70
f 60//71 46//71 63//71
f 60//72 61//72 46//72
f 60//73 55//73 61//73
f 55//74 45//74 61//74
f 58//75 59//75 48//75
f 58//76 56//76 59//76
f 56//77 43//77 59//77
f 55//78 57//78 45//78
f 55//79 56//79 57//79
f 56//80 44//80 57//80
f 85//81 98//81 97//81
f 86//82 98//82 100//82
f 85//83 97//83 102//83
f 85//84 102//84 104//84
f 85//85 104//85 101//85
f 86//86 100//86 107//86
f 87//87 99//87 109//87
f 88//88 103//88 111//88
f 89//89 105//89 113//89
f 90//90 106//90 115//90
f 86//91 107//91 110//91
f 87//92 109//92 112//92
f 88//93 111//93 114//93
f 89//94 113//94 116//94
f 90//95 115//95 108//95
f 91//96 117//96 122//96
f 92//97 118//97 124//97
f 93//98 119//98 125//98
f 94//99 120//99 126//99
f 95//100 121//100 123//100
f 123//101 126//101 96//101
f 123//102 121//102 126//102
f 121//103 94//103 126//103
f 126//104 125//104 96//104
f 126//105 120//105 125//105
f 120//106 93//106 125//106
f 125//107 124//107 96//107
f 125//108 119//108 124//108
f 119//109 92//109 124//109
f 124//110 122//110 96//110
f 124//111 118//111 122//111
f 118//112 91//112 122//112
f 122//113 123//113 96//113
f 122//114 117//114 123//114
f 117//115 95//115 123//115
f 108//116 121//116 95//116
f 108//117 115//117 121//117
f 115//118 94//118 121//118
f 116//119 120//119 94//119
f 116//120 113//120 120//120
f 113//121 93//121 120//121
f 114//122 119//122 93//122
f 114//123 111//123 119//123
f 111//124 92//124 119//124
f 112//125 118//125 92//125
f 112//126 109//126 118//126
f 109//127 91//127 118//127
f 110//128 117//128 91//128
f 110//129 107//129 117//129
f 107//130 95//130 117//130
f 115//131 116//131 94//131
f 115//132 106//132 116//132
f 106//133 89//133 116//133
f 113//134 114//134 93//134
f 113//135 105//135 114//135
f 105//136 88//136 114//136
f 111//137 112//137 92//137
f 111//138 103//138 112//138
f 103//139 87//139 112//139
f 109//140 110//140 91//140
f 109//141 99//141 110//141
f 99//142 86//142 110//142
f 107//143 108//143 95//143
f 107//144 100//144 108//144
f 100//145 90//145 108//145
f 101//146 106//146 90//146
f 101//147 104//147 106//147
f 104//148 89//148 106//148
f 104//149 105//149 89//149
f 104//150 102//150 105//150
f 102//151 88//151 105//151
f 102//152 103//152 88//152
f 102//153 97//153 103//153
f 97//154 87//154 103//154
f 100//155 101//155 90//155
f 100//156 98//156 101//156
f 98//157 85//157 101//157
f 97//158 99//158 87//158
f 97//159 98//159 99//159
f 98//160 86//160 99//160
usemtl vertPaleArtbres
f 1//161 14//161 13//161
f 2//162 14//162 16//162
f 1//163 13//163 18//163
f 1//164 18//164 20//164
f 1//165 20//165 17//165
f 2//166 16//166 23//166
f 3//167 15//167 25//167
f 4//168 19//168 27//168
f 5//169 21//169 29//169
f 6//170 22//170 31//170
f 2//171 23//171 26//171
f 3//172 25//172 28//172
f 4//173 27//173 30//173
f 5//174 29//174 32//174
f 6//175 31//175 24//175
f 7//176 33//176 38//176
f 8//177 34//177 40//177
f 9//178 35//178 41//178
f 10//179 36//179 42//179
f 11//180 37//180 39//180
f 39//181 42//181 12//181
f 39//182 37//182 42//182
f 37//183 10//183 42//183
f 42//184 41//184 12//184
f 42//185 36//185 41//185
f 36//186 9//186 41//186
f 41//187 40//187 12//187
f 41//188 35//188 40//188
f 35//189 8//189 40//189
f 40//190 38//190 12//190
f 40//191 34//191 38//191
f 34//192 7//192 38//192
f 38//193 39//193 12//193
f 38//194 33//194 39//194
f 33//195 11//195 39//195
f 24//196 37//196 11//196
f 24//197 31//197 37//197
f 31//198 10//198 37//198
f 32//199 36//199 10//199
f 32//200 29//200 36//200
f 29//201 9//201 36//201
f 30//202 35//202 9//202
f 30//203 27//203 35//203
f 27//204 8//204 35//204
f 28//205 34//205 8//205
f 28//206 25//206 34//206
f 25//207 7//207 34//207
f 26//208 33//208 7//208
f 26//209 23//209 33//209
f 23//210 11//210 33//210
f 31//211 32//211 10//211
f 31//212 22//212 32//212
f 22//213 5//213 32//213
f 29//214 30//214 9//214
f 29//215 21//215 30//215
f 21//216 4//216 30//216
f 27//217 28//217 8//217
f 27//218 19//218 28//218
f 19//219 3//219 28//219
f 25//220 26//220 7//220
f 25//221 15//221 26//221
f 15//222 2//222 26//222
f 23//223 24//223 11//223
f 23//224 16//224 24//224
f 16//225 6//225 24//225
f 17//226 22//226 6//226
f 17//227 20//227 22//227
f 20//228 5//228 22//228
f 20//229 21//229 5//229
f 20//230 18//230 21//230
f 18//231 4//231 21//231
f 18//232 19//232 4//232
f 18//233 13//233 19//233
f 13//234 3//234 19//234
f 16//235 17//235 6//235
f 16//236 14//236 17//236
f 14//237 1//237 17//237
f 13//238 15//238 3//238
f 13//239 14//239 15//239
f 14//240 2//240 15//240
