# Blender v2.79 (sub 0) OBJ File: 'vegetaux_buisson.blend'
# www.blender.org
mtllib vegetaux_buisson1.mtl
o Icosphere
v -0.000000 0.029676 -0.164709
v 0.534226 0.082709 0.436379
v -0.204052 0.082709 0.761303
v -0.660338 0.082711 -0.089346
v -0.204052 0.082709 -0.939995
v 0.534226 0.082709 -0.615071
v 0.204052 0.574358 0.687046
v -0.534226 0.574358 0.362122
v -0.534226 0.574358 -0.689329
v 0.204052 0.574358 -1.014253
v 0.660338 0.574355 -0.163602
v -0.000000 1.045339 -0.342352
v -0.119938 0.011354 0.372542
v 0.314008 0.011354 0.181558
v 0.194071 0.059293 0.716801
v 0.628018 0.059293 -0.092210
v 0.314008 0.011354 -0.436465
v -0.388137 0.011354 -0.127453
v -0.508078 0.059293 0.407787
v -0.119938 0.011354 -0.627449
v -0.508078 0.059293 -0.592207
v 0.194071 0.059293 -0.901222
v 0.702148 0.281944 0.207187
v 0.702148 0.281944 -0.410838
v -0.000000 0.281944 0.898174
v 0.433951 0.281944 0.707191
v -0.702148 0.281944 0.207187
v -0.433951 0.281944 0.707191
v -0.433951 0.281944 -0.910842
v -0.702148 0.281944 -0.410838
v 0.433951 0.281944 -0.910842
v -0.000000 0.281944 -1.101825
v 0.508078 0.634142 0.319318
v -0.194071 0.634143 0.628333
v -0.628018 0.634142 -0.180679
v -0.194071 0.634143 -0.989691
v 0.508078 0.634142 -0.680676
v 0.119938 0.906621 0.222402
v 0.388137 0.906618 -0.277592
v -0.314008 0.906621 0.031418
v -0.314008 0.906621 -0.586604
v 0.119938 0.906621 -0.777588
v -0.008600 0.034553 -1.117880
v 0.105309 0.066077 -1.582134
v 0.513423 0.066077 -1.330466
v 0.251086 0.066078 -0.820151
v -0.319161 0.066077 -0.756432
v -0.409251 0.066077 -1.227365
v 0.339385 0.358325 -1.505130
v 0.429475 0.358325 -1.034198
v -0.085086 0.358325 -0.679429
v -0.493200 0.358325 -0.931096
v -0.230862 0.358323 -1.441411
v -0.095535 0.638287 -1.057942
v 0.294789 0.023662 -1.240458
v 0.054908 0.023662 -1.388384
v 0.357314 0.052158 -1.510285
v -0.185019 0.052158 -1.449683
v -0.247541 0.023662 -1.179857
v 0.140594 0.023662 -0.940504
v 0.442999 0.052158 -1.062402
v -0.194588 0.023662 -0.903052
v -0.046379 0.052158 -0.724995
v -0.434517 0.052158 -0.964349
v -0.063512 0.184507 -1.586980
v -0.365962 0.184507 -1.378453
v 0.511556 0.184507 -1.476507
v 0.271673 0.184507 -1.624435
v 0.410311 0.184507 -0.899743
v 0.564512 0.184507 -1.199700
v -0.227324 0.184507 -0.653760
v 0.107861 0.184507 -0.691216
v -0.520163 0.184507 -1.078496
v -0.467207 0.184507 -0.801689
v 0.056845 0.393862 -1.529840
v 0.444982 0.393862 -1.290485
v 0.195484 0.393862 -0.805152
v -0.346849 0.393862 -0.744549
v -0.432534 0.393862 -1.192433
v 0.140377 0.555829 -1.307191
v -0.194803 0.555828 -1.269740
v 0.193331 0.555829 -1.030386
v -0.109118 0.555829 -0.821859
v -0.349000 0.555829 -0.969785
v 0.660853 0.017180 -0.827857
v 0.952083 0.038575 -0.684879
v 0.725934 0.038575 -0.450885
v 0.425735 0.038576 -0.698958
v 0.466354 0.038575 -1.086269
v 0.791655 0.038575 -1.077564
v 0.867019 0.236923 -0.540886
v 0.541718 0.236923 -0.549590
v 0.381291 0.236923 -0.942275
v 0.607439 0.236923 -1.176269
v 0.907638 0.236922 -0.928196
v 0.633749 0.426933 -0.894201
v 0.698032 0.009788 -0.608910
v 0.830958 0.009788 -0.746447
v 0.867831 0.029128 -0.528250
v 0.906460 0.029128 -0.896602
v 0.736661 0.009788 -0.977260
v 0.521580 0.009788 -0.754722
v 0.558451 0.029128 -0.536526
v 0.545456 0.009788 -0.982376
v 0.405875 0.029128 -0.909993
v 0.620957 0.029128 -1.132533
v 0.979827 0.118953 -0.796097
v 0.885530 0.118953 -1.026910
v 0.823025 0.118953 -0.430902
v 0.955953 0.118953 -0.568440
v 0.455365 0.118953 -0.581833
v 0.631818 0.118953 -0.436017
v 0.384942 0.118953 -1.040303
v 0.361068 0.118953 -0.812646
v 0.709077 0.118953 -1.172726
v 0.517870 0.118953 -1.177841
v 0.924456 0.261042 -0.724608
v 0.709373 0.261043 -0.502069
v 0.423871 0.261042 -0.737999
v 0.462500 0.261043 -1.106351
v 0.771880 0.261042 -1.098075
v 0.764710 0.370969 -0.701582
v 0.788587 0.370968 -0.929236
v 0.573505 0.370969 -0.706698
v 0.479209 0.370969 -0.937511
v 0.612134 0.370969 -1.075048
vn -0.0166 -0.9991 -0.0378
vn 0.2200 -0.9720 0.0821
vn 0.0448 -0.9987 -0.0241
vn 0.0497 -0.9984 0.0267
vn -0.0196 -0.9988 0.0446
vn 0.8418 -0.5116 0.1720
vn 0.0536 -0.6022 0.7966
vn -0.8266 -0.5142 0.2289
vn -0.5851 -0.5945 -0.5515
vn 0.5370 -0.6040 -0.5889
vn 0.8643 -0.1952 0.4636
vn -0.3937 -0.2113 0.8946
vn -0.9787 -0.2054 0.0000
vn -0.3824 -0.3141 -0.8689
vn 0.8533 -0.2500 -0.4577
vn 0.4230 0.7716 0.4752
vn -0.4794 0.7580 0.4423
vn -0.7828 0.5847 -0.2131
vn 0.0381 0.5861 -0.8093
vn 0.7899 0.5908 -0.1643
vn 0.3586 0.9135 -0.1923
vn 0.5966 0.7360 -0.3200
vn 0.5528 0.5718 -0.6063
vn -0.1484 0.9297 -0.3372
vn -0.2609 0.7620 -0.5927
vn -0.5977 0.5704 -0.5634
vn -0.4041 0.9147 0.0000
vn -0.6554 0.7553 0.0000
vn -0.7152 0.6705 0.1974
vn -0.1143 0.9589 0.2598
vn -0.1933 0.8773 0.4393
vn 0.0375 0.8161 0.5768
vn 0.3074 0.9372 0.1649
vn 0.5066 0.8183 0.2717
vn 0.7385 0.6570 0.1515
vn 0.9161 0.3271 -0.2319
vn 0.8746 0.1225 -0.4691
vn 0.6789 0.2962 -0.6718
vn -0.0145 0.2961 -0.9550
vn -0.4018 0.0693 -0.9131
vn -0.6610 0.2958 -0.6897
vn -0.9206 0.3301 -0.2086
vn -0.9786 0.2060 0.0000
vn -0.8917 0.4067 0.1989
vn -0.5778 0.5321 0.6188
vn -0.3633 0.4322 0.8254
vn -0.0283 0.5981 0.8010
vn 0.6132 0.5229 0.5920
vn 0.8356 0.3177 0.4482
vn 0.8817 0.4137 0.2268
vn 0.4028 -0.0070 -0.9153
vn 0.3641 -0.4280 -0.8272
vn 0.0355 -0.6517 -0.7576
vn -0.8799 0.0558 -0.4719
vn -0.8229 -0.3577 -0.4414
vn -0.8175 -0.5311 -0.2228
vn -0.8538 0.2476 0.4580
vn -0.8338 -0.3238 0.4472
vn -0.6127 -0.5540 0.5636
vn 0.3766 0.3550 0.8557
vn 0.3747 -0.3670 0.8514
vn 0.5481 -0.5639 0.6178
vn 0.9899 0.1415 0.0000
vn 0.9488 -0.3159 0.0000
vn 0.8333 -0.5250 -0.1730
vn 0.1928 -0.9698 -0.1498
vn 0.0508 -0.9920 -0.1154
vn -0.0367 -0.9764 -0.2130
vn -0.1370 -0.9731 -0.1853
vn -0.1284 -0.9893 -0.0689
vn -0.2578 -0.9656 -0.0331
vn -0.2494 -0.9679 0.0308
vn -0.1167 -0.9912 0.0626
vn -0.1070 -0.9818 0.1571
vn 0.2427 -0.9662 -0.0868
vn 0.1509 -0.9885 0.0000
vn -0.0583 -0.9983 0.0000
vn -0.0386 -0.9843 0.1723
vn 0.0435 -0.9942 0.0988
vn 0.1710 -0.9772 0.1258
vn -0.0297 -0.9991 -0.0287
vn 0.2347 -0.9720 -0.0072
vn 0.0324 -0.9987 -0.0392
vn 0.0561 -0.9984 0.0059
vn -0.0013 -0.9988 0.0488
vn 0.8444 -0.5116 -0.1591
vn 0.3509 -0.6022 0.7171
vn -0.6786 -0.5142 0.5245
vn -0.7503 -0.5945 -0.2893
vn 0.2744 -0.6040 -0.7483
vn 0.9754 -0.1952 0.1023
vn -0.0261 -0.2113 0.9771
vn -0.9060 -0.2054 0.3701
vn -0.6827 -0.3141 -0.6598
vn 0.6168 -0.2500 -0.7464
vn 0.5713 0.7716 0.2799
vn -0.2765 0.7580 0.5908
vn -0.8052 0.5847 0.0988
vn -0.2708 0.5861 -0.7636
vn 0.6691 0.5908 -0.4508
vn 0.2592 0.9135 -0.3137
vn 0.4312 0.7360 -0.5219
vn 0.2824 0.5718 -0.7703
vn -0.2649 0.9297 -0.2560
vn -0.4656 0.7620 -0.4500
vn -0.7664 0.5704 -0.2955
vn -0.3741 0.9147 0.1528
vn -0.6067 0.7553 0.2479
vn -0.5874 0.6705 0.4532
vn -0.0076 0.9589 0.2838
vn -0.0128 0.8773 0.4798
vn 0.2528 0.8161 0.5197
vn 0.3470 0.9372 0.0364
vn 0.5717 0.8183 0.0600
vn 0.7410 0.6570 -0.1390
vn 0.7603 0.3271 -0.5612
vn 0.6322 0.1225 -0.7650
vn 0.3744 0.2962 -0.8787
vn -0.3746 0.2961 -0.8786
vn -0.7173 0.0693 -0.6933
vn -0.8727 0.2958 -0.3885
vn -0.9311 0.3301 0.1551
vn -0.9059 0.2060 0.3701
vn -0.7502 0.4067 0.5213
vn -0.3009 0.5321 0.7914
vn -0.0241 0.4322 0.9015
vn 0.2767 0.5981 0.7522
vn 0.7916 0.5229 0.3161
vn 0.9430 0.3177 0.0989
vn 0.9020 0.4137 -0.1235
vn 0.0267 -0.0070 -0.9996
vn 0.0242 -0.4280 -0.9035
vn -0.2537 -0.6517 -0.7148
vn -0.9930 0.0558 -0.1041
vn -0.9287 -0.3577 -0.0974
vn -0.8410 -0.5311 0.1029
vn -0.6172 0.2476 0.7468
vn -0.6027 -0.3238 0.7293
vn -0.3541 -0.5540 0.7535
vn 0.6722 0.3550 0.6497
vn 0.6689 -0.3670 0.6465
vn 0.7410 -0.5639 0.3646
vn 0.9164 0.1415 -0.3744
vn 0.8783 -0.3159 -0.3588
vn 0.7060 -0.5250 -0.4753
vn 0.1218 -0.9698 -0.2115
vn 0.0034 -0.9920 -0.1261
vn -0.1145 -0.9764 -0.1833
vn -0.1969 -0.9731 -0.1197
vn -0.1450 -0.9893 -0.0152
vn -0.2511 -0.9656 0.0669
vn -0.2192 -0.9679 0.1228
vn -0.0844 -0.9912 0.1021
vn -0.0397 -0.9818 0.1859
vn 0.1918 -0.9662 -0.1721
vn 0.1397 -0.9885 -0.0571
vn -0.0539 -0.9983 0.0220
vn 0.0294 -0.9843 0.1741
vn 0.0776 -0.9942 0.0750
vn 0.2059 -0.9772 0.0518
vn -0.0217 -0.9991 0.0351
vn -0.0573 -0.9720 -0.2277
vn -0.0453 -0.9987 -0.0233
vn -0.0063 -0.9984 -0.0560
vn 0.0479 -0.9988 -0.0092
vn -0.3362 -0.5116 -0.7907
vn 0.6254 -0.6022 -0.4963
vn 0.6577 -0.5142 0.5505
vn -0.1219 -0.5945 0.7948
vn -0.7897 -0.6040 -0.1078
vn -0.1089 -0.1952 -0.9747
vn 0.9600 -0.2113 -0.1837
vn 0.5555 -0.2054 0.8057
vn -0.4983 -0.3141 0.8081
vn -0.8611 -0.2500 -0.4427
vn 0.1511 0.7716 -0.6180
vn 0.6363 0.7580 0.1436
vn 0.2689 0.5847 0.7654
vn -0.6879 0.5861 0.4280
vn -0.5837 0.5908 -0.5571
vn -0.3619 0.9135 -0.1860
vn -0.6021 0.7360 -0.3095
vn -0.8129 0.5718 -0.1110
vn -0.1934 0.9297 0.3136
vn -0.3399 0.7620 0.5512
vn -0.1246 0.5704 0.8119
vn 0.2294 0.9147 0.3327
vn 0.3720 0.7553 0.5396
vn 0.5685 0.6705 0.4767
vn 0.2788 0.9589 -0.0533
vn 0.4714 0.8773 -0.0902
vn 0.4536 0.8161 -0.3582
vn -0.0387 0.9372 -0.3467
vn -0.0638 0.8183 -0.5713
vn -0.2945 0.6570 -0.6940
vn -0.7109 0.3271 -0.6226
vn -0.8827 0.1225 -0.4538
vn -0.9385 0.2962 -0.1776
vn -0.7781 0.2961 0.5540
vn -0.5236 0.0693 0.8491
vn -0.1926 0.2958 0.9356
vn 0.3509 0.3301 0.8763
vn 0.5555 0.2060 0.8056
vn 0.6699 0.4067 0.6212
vn 0.8375 0.5321 0.1245
vn 0.8857 0.4322 -0.1694
vn 0.6755 0.5981 -0.4313
vn 0.1393 0.5229 -0.8409
vn -0.1053 0.3177 -0.9423
vn -0.3138 0.4137 -0.8547
vn -0.9822 -0.0070 0.1879
vn -0.8877 -0.4280 0.1698
vn -0.6439 -0.6517 0.4009
vn 0.1109 0.0558 0.9923
vn 0.1037 -0.3577 0.9281
vn 0.2806 -0.5311 0.7995
vn 0.8617 0.2476 0.4430
vn 0.8414 -0.3238 0.4326
vn 0.8118 -0.5540 0.1845
vn 0.4907 0.3550 -0.7957
vn 0.4883 -0.3670 -0.7918
vn 0.1975 -0.5639 -0.8019
vn -0.5619 0.1415 -0.8150
vn -0.5386 -0.3159 -0.7811
vn -0.6154 -0.5250 -0.5879
vn -0.2327 -0.9698 -0.0737
vn -0.1239 -0.9920 0.0237
vn -0.1546 -0.9764 0.1511
vn -0.0748 -0.9731 0.2180
vn 0.0162 -0.9893 0.1449
vn 0.1191 -0.9656 0.2310
vn 0.1669 -0.9679 0.1879
vn 0.1178 -0.9912 0.0606
vn 0.1900 -0.9818 -0.0011
vn -0.2092 -0.9662 -0.1505
vn -0.0857 -0.9885 -0.1243
vn 0.0331 -0.9983 0.0480
vn 0.1638 -0.9843 -0.0660
vn 0.0566 -0.9942 -0.0919
vn 0.0065 -0.9772 -0.2122
usemtl vertArbres
s off
f 1//1 14//1 13//1
f 2//2 14//2 16//2
f 1//3 13//3 18//3
f 1//4 18//4 20//4
f 1//5 20//5 17//5
f 2//6 16//6 23//6
f 3//7 15//7 25//7
f 4//8 19//8 27//8
f 5//9 21//9 29//9
f 6//10 22//10 31//10
f 2//11 23//11 26//11
f 3//12 25//12 28//12
f 4//13 27//13 30//13
f 5//14 29//14 32//14
f 6//15 31//15 24//15
f 7//16 33//16 38//16
f 8//17 34//17 40//17
f 9//18 35//18 41//18
f 10//19 36//19 42//19
f 11//20 37//20 39//20
f 39//21 42//21 12//21
f 39//22 37//22 42//22
f 37//23 10//23 42//23
f 42//24 41//24 12//24
f 42//25 36//25 41//25
f 36//26 9//26 41//26
f 41//27 40//27 12//27
f 41//28 35//28 40//28
f 35//29 8//29 40//29
f 40//30 38//30 12//30
f 40//31 34//31 38//31
f 34//32 7//32 38//32
f 38//33 39//33 12//33
f 38//34 33//34 39//34
f 33//35 11//35 39//35
f 24//36 37//36 11//36
f 24//37 31//37 37//37
f 31//38 10//38 37//38
f 32//39 36//39 10//39
f 32//40 29//40 36//40
f 29//41 9//41 36//41
f 30//42 35//42 9//42
f 30//43 27//43 35//43
f 27//44 8//44 35//44
f 28//45 34//45 8//45
f 28//46 25//46 34//46
f 25//47 7//47 34//47
f 26//48 33//48 7//48
f 26//49 23//49 33//49
f 23//50 11//50 33//50
f 31//51 32//51 10//51
f 31//52 22//52 32//52
f 22//53 5//53 32//53
f 29//54 30//54 9//54
f 29//55 21//55 30//55
f 21//56 4//56 30//56
f 27//57 28//57 8//57
f 27//58 19//58 28//58
f 19//59 3//59 28//59
f 25//60 26//60 7//60
f 25//61 15//61 26//61
f 15//62 2//62 26//62
f 23//63 24//63 11//63
f 23//64 16//64 24//64
f 16//65 6//65 24//65
f 17//66 22//66 6//66
f 17//67 20//67 22//67
f 20//68 5//68 22//68
f 20//69 21//69 5//69
f 20//70 18//70 21//70
f 18//71 4//71 21//71
f 18//72 19//72 4//72
f 18//73 13//73 19//73
f 13//74 3//74 19//74
f 16//75 17//75 6//75
f 16//76 14//76 17//76
f 14//77 1//77 17//77
f 13//78 15//78 3//78
f 13//79 14//79 15//79
f 14//80 2//80 15//80
f 85//81 98//81 97//81
f 86//82 98//82 100//82
f 85//83 97//83 102//83
f 85//84 102//84 104//84
f 85//85 104//85 101//85
f 86//86 100//86 107//86
f 87//87 99//87 109//87
f 88//88 103//88 111//88
f 89//89 105//89 113//89
f 90//90 106//90 115//90
f 86//91 107//91 110//91
f 87//92 109//92 112//92
f 88//93 111//93 114//93
f 89//94 113//94 116//94
f 90//95 115//95 108//95
f 91//96 117//96 122//96
f 92//97 118//97 124//97
f 93//98 119//98 125//98
f 94//99 120//99 126//99
f 95//100 121//100 123//100
f 123//101 126//101 96//101
f 123//102 121//102 126//102
f 121//103 94//103 126//103
f 126//104 125//104 96//104
f 126//105 120//105 125//105
f 120//106 93//106 125//106
f 125//107 124//107 96//107
f 125//108 119//108 124//108
f 119//109 92//109 124//109
f 124//110 122//110 96//110
f 124//111 118//111 122//111
f 118//112 91//112 122//112
f 122//113 123//113 96//113
f 122//114 117//114 123//114
f 117//115 95//115 123//115
f 108//116 121//116 95//116
f 108//117 115//117 121//117
f 115//118 94//118 121//118
f 116//119 120//119 94//119
f 116//120 113//120 120//120
f 113//121 93//121 120//121
f 114//122 119//122 93//122
f 114//123 111//123 119//123
f 111//124 92//124 119//124
f 112//125 118//125 92//125
f 112//126 109//126 118//126
f 109//127 91//127 118//127
f 110//128 117//128 91//128
f 110//129 107//129 117//129
f 107//130 95//130 117//130
f 115//131 116//131 94//131
f 115//132 106//132 116//132
f 106//133 89//133 116//133
f 113//134 114//134 93//134
f 113//135 105//135 114//135
f 105//136 88//136 114//136
f 111//137 112//137 92//137
f 111//138 103//138 112//138
f 103//139 87//139 112//139
f 109//140 110//140 91//140
f 109//141 99//141 110//141
f 99//142 86//142 110//142
f 107//143 108//143 95//143
f 107//144 100//144 108//144
f 100//145 90//145 108//145
f 101//146 106//146 90//146
f 101//147 104//147 106//147
f 104//148 89//148 106//148
f 104//149 105//149 89//149
f 104//150 102//150 105//150
f 102//151 88//151 105//151
f 102//152 103//152 88//152
f 102//153 97//153 103//153
f 97//154 87//154 103//154
f 100//155 101//155 90//155
f 100//156 98//156 101//156
f 98//157 85//157 101//157
f 97//158 99//158 87//158
f 97//159 98//159 99//159
f 98//160 86//160 99//160
usemtl vertPaleArtbres
f 43//161 56//161 55//161
f 44//162 56//162 58//162
f 43//163 55//163 60//163
f 43//164 60//164 62//164
f 43//165 62//165 59//165
f 44//166 58//166 65//166
f 45//167 57//167 67//167
f 46//168 61//168 69//168
f 47//169 63//169 71//169
f 48//170 64//170 73//170
f 44//171 65//171 68//171
f 45//172 67//172 70//172
f 46//173 69//173 72//173
f 47//174 71//174 74//174
f 48//175 73//175 66//175
f 49//176 75//176 80//176
f 50//177 76//177 82//177
f 51//178 77//178 83//178
f 52//179 78//179 84//179
f 53//180 79//180 81//180
f 81//181 84//181 54//181
f 81//182 79//182 84//182
f 79//183 52//183 84//183
f 84//184 83//184 54//184
f 84//185 78//185 83//185
f 78//186 51//186 83//186
f 83//187 82//187 54//187
f 83//188 77//188 82//188
f 77//189 50//189 82//189
f 82//190 80//190 54//190
f 82//191 76//191 80//191
f 76//192 49//192 80//192
f 80//193 81//193 54//193
f 80//194 75//194 81//194
f 75//195 53//195 81//195
f 66//196 79//196 53//196
f 66//197 73//197 79//197
f 73//198 52//198 79//198
f 74//199 78//199 52//199
f 74//200 71//200 78//200
f 71//201 51//201 78//201
f 72//202 77//202 51//202
f 72//203 69//203 77//203
f 69//204 50//204 77//204
f 70//205 76//205 50//205
f 70//206 67//206 76//206
f 67//207 49//207 76//207
f 68//208 75//208 49//208
f 68//209 65//209 75//209
f 65//210 53//210 75//210
f 73//211 74//211 52//211
f 73//212 64//212 74//212
f 64//213 47//213 74//213
f 71//214 72//214 51//214
f 71//215 63//215 72//215
f 63//216 46//216 72//216
f 69//217 70//217 50//217
f 69//218 61//218 70//218
f 61//219 45//219 70//219
f 67//220 68//220 49//220
f 67//221 57//221 68//221
f 57//222 44//222 68//222
f 65//223 66//223 53//223
f 65//224 58//224 66//224
f 58//225 48//225 66//225
f 59//226 64//226 48//226
f 59//227 62//227 64//227
f 62//228 47//228 64//228
f 62//229 63//229 47//229
f 62//230 60//230 63//230
f 60//231 46//231 63//231
f 60//232 61//232 46//232
f 60//233 55//233 61//233
f 55//234 45//234 61//234
f 58//235 59//235 48//235
f 58//236 56//236 59//236
f 56//237 43//237 59//237
f 55//238 57//238 45//238
f 55//239 56//239 57//239
f 56//240 44//240 57//240
